<svg width="89" height="89" viewBox="0 0 89 89" fill="none" xmlns="http://www.w3.org/2000/svg">
<path d="M34.8918 37.7021V12.9521C34.8917 12.7323 34.8389 12.5158 34.7378 12.3206C34.6367 12.1254 34.4903 11.9573 34.3108 11.8304C34.1314 11.7035 33.9241 11.6214 33.7064 11.5911C33.4887 11.5608 33.2669 11.5831 33.0596 11.6562C25.3399 14.3849 18.8477 19.7795 14.7516 26.869C10.6554 33.9585 9.22433 42.2773 10.7159 50.3281C10.7544 50.5453 10.8447 50.7501 10.979 50.9251C11.1134 51.1001 11.2879 51.2402 11.4878 51.3336C11.6877 51.427 11.9071 51.4709 12.1276 51.4616C12.348 51.4523 12.563 51.3901 12.7543 51.2803L34.2043 38.9053C34.4152 38.7836 34.5899 38.608 34.7107 38.3966C34.8315 38.1853 34.894 37.9456 34.8918 37.7021ZM32.1418 36.9081L13.1221 47.8806C12.2944 41.073 13.7019 34.1808 17.1324 28.2428C20.563 22.3049 25.8308 17.6429 32.1418 14.9596V36.9081ZM44.5168 9.68652C44.1521 9.68652 43.8024 9.83139 43.5445 10.0893C43.2867 10.3471 43.1418 10.6969 43.1418 11.0615V43.4153L15.3668 59.5921C15.2102 59.6834 15.0732 59.8047 14.9637 59.9491C14.8542 60.0935 14.7743 60.2581 14.7286 60.4335C14.6829 60.6089 14.6723 60.7916 14.6975 60.9711C14.7227 61.1506 14.7831 61.3233 14.8753 61.4793C17.9269 66.6715 22.289 70.9708 27.5249 73.9467C32.7608 76.9226 38.6867 78.4707 44.7091 78.436C50.7315 78.4012 56.6391 76.7848 61.8403 73.7487C67.0415 70.7125 71.3538 66.3631 74.3452 61.1361C77.3367 55.9091 78.9024 49.9879 78.8856 43.9654C78.8687 37.9429 77.2699 32.0305 74.2493 26.8203C71.2286 21.6101 66.8921 17.2849 61.674 14.2779C56.4559 11.2709 50.5393 9.68759 44.5168 9.68652ZM44.5168 75.6865C39.2418 75.6716 34.0534 74.344 29.4194 71.8236C24.7854 69.3032 20.8515 65.6691 17.9724 61.249L45.2043 45.3953C45.4131 45.2747 45.5866 45.1014 45.7072 44.8926C45.8279 44.6838 45.8916 44.447 45.8918 44.2059V12.4675C54.1481 12.8329 61.9333 16.4157 67.5811 22.449C73.229 28.4823 76.2907 36.4868 76.111 44.7492C75.9313 53.0116 72.5245 60.8754 66.6196 66.6574C60.7148 72.4395 52.7812 75.6804 44.5168 75.6865Z" fill="white"/>
</svg>
