<svg width="89" height="89" viewBox="0 0 89 89" fill="none" xmlns="http://www.w3.org/2000/svg">
<path d="M34.9153 38.4678V13.7178C34.9151 13.498 34.8623 13.2814 34.7612 13.0862C34.6601 12.8911 34.5137 12.723 34.3343 12.596C34.1548 12.4691 33.9476 12.387 33.7299 12.3567C33.5122 12.3264 33.2904 12.3488 33.0831 12.4218C25.3634 15.1506 18.8712 20.5452 14.775 27.6347C10.6789 34.7242 9.24777 43.0429 10.7393 51.0937C10.7779 51.3109 10.8681 51.5157 11.0025 51.6907C11.1368 51.8657 11.3113 52.0059 11.5112 52.0992C11.7111 52.1926 11.9306 52.2365 12.151 52.2272C12.3714 52.2179 12.5864 52.1558 12.7778 52.0459L34.2278 39.6709C34.4386 39.5492 34.6134 39.3737 34.7341 39.1623C34.8549 38.9509 34.9174 38.7112 34.9153 38.4678ZM32.1653 37.6737L13.1456 48.6462C12.3178 41.8386 13.7253 34.9464 17.1559 29.0085C20.5865 23.0705 25.8543 18.4085 32.1653 15.7253V37.6737ZM44.5403 10.4521C44.1756 10.4521 43.8258 10.597 43.568 10.8549C43.3101 11.1127 43.1653 11.4625 43.1653 11.8271V44.1809L15.3903 60.3578C15.2337 60.449 15.0967 60.5704 14.9871 60.7147C14.8776 60.8591 14.7977 61.0238 14.752 61.1991C14.7063 61.3745 14.6958 61.5572 14.721 61.7367C14.7461 61.9162 14.8065 62.0889 14.8987 62.245C17.9503 67.4371 22.3125 71.7364 27.5484 74.7123C32.7843 77.6882 38.7101 79.2363 44.7325 79.2016C50.7549 79.1668 56.6625 77.5504 61.8637 74.5143C67.0649 71.4781 71.3772 67.1288 74.3687 61.9017C77.3601 56.6747 78.9259 50.7535 78.909 44.731C78.8922 38.7085 77.2934 32.7961 74.2727 27.5859C71.252 22.3757 66.9155 18.0506 61.6974 15.0435C56.4793 12.0365 50.5628 10.4532 44.5403 10.4521ZM44.5403 76.4521C39.2652 76.4372 34.0768 75.1096 29.4428 72.5892C24.8089 70.0688 20.875 66.4347 17.9959 62.0146L45.2278 46.1609C45.4366 46.0403 45.61 45.867 45.7307 45.6582C45.8514 45.4495 45.915 45.2126 45.9153 44.9715V13.2331C54.1715 13.5985 61.9567 17.1813 67.6046 23.2146C73.2524 29.248 76.3142 37.2524 76.1345 45.5148C75.9548 53.7772 72.5479 61.641 66.6431 67.4231C60.7382 73.2051 52.8046 76.4461 44.5403 76.4521Z" fill="black"/>
</svg>
