<svg width="126" height="31" viewBox="0 0 126 31" fill="none" xmlns="http://www.w3.org/2000/svg">
<g clip-path="url(#clip0_6345_673)">
<path d="M48.766 8.36562C47.4968 7.13938 45.4393 7.13917 44.1703 8.36515C42.9014 9.59115 42.9016 11.5791 44.1708 12.8053L59.1764 27.3032C60.4457 28.5294 62.5033 28.5296 63.7722 27.3036C65.0412 26.0776 65.0409 24.0897 63.7717 22.8635L48.766 8.36562Z" fill="#02AA69"/>
<path d="M44.4371 23.2335C43.2218 24.5086 43.3063 26.494 44.6258 27.668C45.9453 28.8419 48.0003 28.7599 49.2156 27.4848L63.5926 12.4002C64.8079 11.1251 64.7234 9.13969 63.4039 7.96572C62.0844 6.79176 60.0294 6.8738 58.8141 8.149L44.4371 23.2335Z" fill="#02AA69"/>
<path d="M10.6951 28.1458C9.25481 28.1585 7.81886 27.9922 6.42249 27.6512C5.18508 27.3531 4.03394 26.7873 3.05605 25.9965C2.11064 25.2239 1.36861 24.1651 0.829982 22.8198C0.291353 21.4745 0.0225048 19.8031 0.0234399 17.8055C0.0234399 14.6858 0.818296 12.2252 2.40801 10.4237C3.99771 8.62215 6.38228 7.72186 9.56173 7.72276C9.9806 7.72276 10.5319 7.75438 11.2155 7.81763C11.9417 7.89192 12.6558 8.05166 13.3419 8.29331C14.0964 8.56277 14.7707 9.00723 15.3057 9.58754L14.1246 11.3371V0.408691H19.9528V22.5515C19.9713 23.4299 19.6947 24.2905 19.1645 25.0044C18.6084 25.7286 17.8888 26.3209 17.0605 26.7364C16.1233 27.2134 15.1234 27.5654 14.0882 27.7826C12.9746 28.025 11.8366 28.1468 10.6951 28.1458ZM10.9308 23.3904C11.8761 23.3904 12.6439 23.2702 13.2339 23.0298C13.824 22.7895 14.1195 22.4282 14.1204 21.9457V13.0785C13.642 12.8223 13.1327 12.6239 12.6042 12.4877C12.0972 12.3532 11.5742 12.283 11.0485 12.279C9.94605 12.279 9.0142 12.4565 8.25298 12.8116C7.49181 13.1666 6.92091 13.7607 6.54033 14.5937C6.15879 15.4312 5.96849 16.5605 5.96943 17.9817C5.96943 19.0984 6.127 20.0556 6.44213 20.8534C6.73115 21.6268 7.27846 22.2853 7.99772 22.7249C8.71866 23.1676 9.69637 23.3885 10.9308 23.3876V23.3904Z" fill="#02AA69"/>
<path d="M32.1055 28.1458C30.1109 28.1458 28.3454 27.7465 26.809 26.9478C25.2948 26.1688 24.0495 24.9789 23.2265 23.5246C22.3727 22.0402 21.9463 20.2707 21.9473 18.2162C21.9473 14.8688 22.8067 12.2754 24.5254 10.4359C26.2442 8.59648 28.7054 7.67852 31.9091 7.68214C34.1141 7.68214 35.8909 8.13886 37.2394 9.05225C38.5878 9.96563 39.5786 11.2969 40.2117 13.0461C40.841 14.797 41.143 16.9279 41.1178 19.4386H25.9632L25.3333 15.8134H36.2743L35.4075 17.6009C35.3822 15.5464 35.0806 14.1009 34.5027 13.2642C33.9248 12.4276 32.9817 12.0125 31.6735 12.0188C30.9717 12.0099 30.2818 12.1941 29.6844 12.55C29.0944 12.9069 28.6348 13.4969 28.3056 14.3199C27.9765 15.143 27.8133 16.276 27.8161 17.7189C27.8161 19.5456 28.2692 20.9537 29.1753 21.943C30.0814 22.9323 31.5309 23.4266 33.5236 23.4256C34.2595 23.4259 34.993 23.3432 35.7091 23.1789C36.3971 23.0234 37.0746 22.8266 37.7373 22.5895C38.3676 22.3599 38.9057 22.1572 39.3518 21.9809V26.8502C38.3269 27.2542 37.2657 27.5663 36.1817 27.7826C34.8396 28.0396 33.4736 28.1613 32.1055 28.1458Z" fill="#02AA69"/>
<path d="M72.2151 27.468L65.5215 8.22412H71.8602L76.3095 23.7846L74.458 23.8605L78.6661 8.22412H82.9976L87.133 23.4024H85.6823L89.9355 8.22412H96.156L89.5414 27.468H84.2245L80.2874 15.0273L81.2691 15.1424L77.5285 27.4749L72.2151 27.468Z" fill="white"/>
<path d="M97.748 5.59385V1.21924H103.812V5.59385H97.748ZM97.8659 27.4683V8.48588H103.733L103.773 27.4683H97.8659Z" fill="white"/>
<path d="M106.135 9.85048C106.769 9.5431 107.425 9.28256 108.099 9.07125C108.977 8.78802 109.871 8.55318 110.776 8.36787C111.747 8.16456 112.726 7.99971 113.711 7.87322C114.619 7.75097 115.535 7.68713 116.452 7.68213C118.238 7.68213 119.761 7.908 121.019 8.35971C122.277 8.81148 123.243 9.52794 123.914 10.5091C124.583 11.5029 124.917 12.8469 124.917 14.5409V27.4682H119.051V15.6779C119.056 15.2253 118.982 14.775 118.834 14.3457C118.7 13.9349 118.464 13.5623 118.145 13.2606C117.827 12.9588 117.437 12.7371 117.01 12.6151C116.424 12.4373 115.812 12.3535 115.198 12.3671C114.585 12.3671 113.976 12.4372 113.38 12.5758C112.905 12.6726 112.444 12.8193 112.003 13.0136V27.4682H106.135V9.85048Z" fill="white"/>
</g>
<defs>
<clipPath id="clip0_6345_673">
<rect width="125" height="30" fill="white" transform="translate(0.0234375 0.408691)"/>
</clipPath>
</defs>
</svg>
