<svg width="126" height="31" viewBox="0 0 126 31" fill="none" xmlns="http://www.w3.org/2000/svg">
<g clip-path="url(#clip0_6526_27326)">
<path d="M49.2738 8.36562C48.0046 7.13938 45.9471 7.13917 44.6781 8.36515C43.4092 9.59115 43.4094 11.5791 44.6786 12.8053L59.6843 27.3032C60.9535 28.5294 63.0111 28.5296 64.28 27.3036C65.549 26.0776 65.5487 24.0897 64.2796 22.8635L49.2738 8.36562Z" fill="#02AA69"/>
<path d="M44.945 23.2335C43.7296 24.5086 43.8141 26.494 45.1336 27.668C46.4532 28.8419 48.5081 28.7599 49.7235 27.4848L64.1004 12.4002C65.3157 11.1251 65.2313 9.13969 63.9118 7.96572C62.5922 6.79176 60.5372 6.8738 59.3219 8.149L44.945 23.2335Z" fill="#02AA69"/>
<path d="M11.2029 28.1458C9.76262 28.1585 8.32667 27.9922 6.9303 27.6512C5.69289 27.3531 4.54175 26.7873 3.56386 25.9965C2.61845 25.2239 1.87643 24.1651 1.33779 22.8198C0.799166 21.4745 0.530317 19.8031 0.531252 17.8055C0.531252 14.6858 1.32611 12.2252 2.91582 10.4237C4.50553 8.62215 6.8901 7.72186 10.0695 7.72276C10.4884 7.72276 11.0397 7.75438 11.7233 7.81763C12.4495 7.89192 13.1637 8.05166 13.8497 8.29331C14.6042 8.56277 15.2785 9.00723 15.8135 9.58754L14.6324 11.3371V0.408691H20.4606V22.5515C20.4791 23.4299 20.2025 24.2905 19.6723 25.0044C19.1162 25.7286 18.3966 26.3209 17.5683 26.7364C16.6311 27.2134 15.6312 27.5654 14.596 27.7826C13.4824 28.025 12.3444 28.1468 11.2029 28.1458ZM11.4386 23.3904C12.384 23.3904 13.1517 23.2702 13.7418 23.0298C14.3318 22.7895 14.6273 22.4282 14.6282 21.9457V13.0785C14.1498 12.8223 13.6405 12.6239 13.112 12.4877C12.605 12.3532 12.082 12.283 11.5563 12.279C10.4539 12.279 9.52201 12.4565 8.76079 12.8116C7.99962 13.1666 7.42873 13.7607 7.04814 14.5937C6.6666 15.4312 6.47631 16.5605 6.47724 17.9817C6.47724 19.0984 6.63481 20.0556 6.94994 20.8534C7.23897 21.6268 7.78627 22.2853 8.50553 22.7249C9.22647 23.1676 10.2042 23.3885 11.4386 23.3876V23.3904Z" fill="#02AA69"/>
<path d="M32.6114 28.1458C30.6167 28.1458 28.8512 27.7465 27.3148 26.9478C25.8007 26.1688 24.5554 24.9789 23.7323 23.5246C22.8786 22.0402 22.4522 20.2707 22.4531 18.2162C22.4531 14.8688 23.3125 12.2754 25.0312 10.4359C26.75 8.59648 29.2112 7.67852 32.415 7.68214C34.62 7.68214 36.3968 8.13886 37.7452 9.05225C39.0937 9.96563 40.0844 11.2969 40.7175 13.0461C41.3468 14.797 41.6489 16.9279 41.6237 19.4386H26.4691L25.8392 15.8134H36.7802L35.9133 17.6009C35.8881 15.5464 35.5865 14.1009 35.0085 13.2642C34.4307 12.4276 33.4876 12.0125 32.1793 12.0188C31.4776 12.0099 30.7877 12.1941 30.1903 12.55C29.6003 12.9069 29.1406 13.4969 28.8115 14.3199C28.4823 15.143 28.3191 16.276 28.322 17.7189C28.322 19.5456 28.775 20.9537 29.6812 21.943C30.5873 22.9323 32.0367 23.4266 34.0295 23.4256C34.7654 23.4259 35.4988 23.3432 36.2149 23.1789C36.903 23.0234 37.5804 22.8266 38.2432 22.5895C38.8734 22.3599 39.4116 22.1572 39.8577 21.9809V26.8502C38.8327 27.2542 37.7716 27.5663 36.6876 27.7826C35.3455 28.0396 33.9795 28.1613 32.6114 28.1458Z" fill="#02AA69"/>
<path d="M72.7249 27.468L66.0312 8.22412H72.3699L76.8193 23.7846L74.9678 23.8605L79.1758 8.22412H83.5074L87.6427 23.4024H86.1921L90.4453 8.22412H96.6658L90.0512 27.468H84.7343L80.7972 15.0273L81.7789 15.1424L78.0383 27.4749L72.7249 27.468Z" fill="#001F37"/>
<path d="M98.2578 5.59385V1.21924H104.322V5.59385H98.2578ZM98.3756 27.4683V8.48588H104.243L104.282 27.4683H98.3756Z" fill="#001F37"/>
<path d="M106.641 9.85048C107.274 9.5431 107.93 9.28256 108.605 9.07125C109.483 8.78802 110.377 8.55318 111.282 8.36787C112.253 8.16456 113.231 7.99971 114.217 7.87322C115.125 7.75097 116.041 7.68713 116.957 7.68213C118.744 7.68213 120.266 7.908 121.525 8.35971C122.783 8.81148 123.749 9.52794 124.42 10.5091C125.089 11.5029 125.423 12.8469 125.423 14.5409V27.4682H119.557V15.6779C119.562 15.2253 119.488 14.775 119.34 14.3457C119.206 13.9349 118.969 13.5623 118.651 13.2606C118.333 12.9588 117.943 12.7371 117.516 12.6151C116.93 12.4373 116.317 12.3535 115.704 12.3671C115.091 12.3671 114.481 12.4372 113.886 12.5758C113.411 12.6726 112.95 12.8193 112.508 13.0136V27.4682H106.641V9.85048Z" fill="#001F37"/>
</g>
<defs>
<clipPath id="clip0_6526_27326">
<rect width="125" height="30" fill="white" transform="translate(0.53125 0.408691)"/>
</clipPath>
</defs>
</svg>
