<svg width="38" height="28" viewBox="0 0 38 28" fill="none" xmlns="http://www.w3.org/2000/svg">
<path d="M35.2439 0.862305H2.7327C1.23642 0.862305 0.0234375 2.07528 0.0234375 3.57157V25.2457C0.0234375 26.742 1.23642 27.9549 2.7327 27.9549H35.2439C36.7401 27.9549 37.9531 26.742 37.9531 25.2457V3.57157C37.9531 2.07528 36.7401 0.862305 35.2439 0.862305Z" fill="white"/>
<mask id="mask0_6399_2492" style="mask-type:alpha" maskUnits="userSpaceOnUse" x="0" y="0" width="38" height="28">
<path d="M35.2439 0.862305H2.7327C1.23642 0.862305 0.0234375 2.07528 0.0234375 3.57157V25.2457C0.0234375 26.742 1.23642 27.9549 2.7327 27.9549H35.2439C36.7401 27.9549 37.9531 26.742 37.9531 25.2457V3.57157C37.9531 2.07528 36.7401 0.862305 35.2439 0.862305Z" fill="white"/>
</mask>
<g mask="url(#mask0_6399_2492)">
<path d="M37.9531 0.862305H0.0234375V27.9549H37.9531V0.862305Z" fill="#043CAE"/>
<path fill-rule="evenodd" clip-rule="evenodd" d="M17.7106 6.65491L18.9878 6.28084L20.2649 6.65491L19.8908 5.37775L20.2649 4.10059L18.9878 4.47467L17.7106 4.10059L18.0846 5.37775L17.7106 6.65491ZM17.7106 24.7167L18.9878 24.3425L20.2649 24.7167L19.8908 23.4395L20.2649 22.1624L18.9878 22.5364L17.7106 22.1624L18.0846 23.4395L17.7106 24.7167ZM28.0185 15.3117L26.7414 15.6858L27.1155 14.4086L26.7414 13.1315L28.0185 13.5055L29.2958 13.1315L28.9217 14.4086L29.2958 15.6858L28.0185 15.3117ZM8.67969 15.6858L9.95685 15.3117L11.234 15.6858L10.8599 14.4086L11.234 13.1315L9.95685 13.5055L8.67969 13.1315L9.05377 14.4086L8.67969 15.6858ZM26.8087 10.7963L25.5316 11.1703L25.9056 9.89319L25.5316 8.61603L26.8087 8.9901L28.0859 8.61603L27.7117 9.89319L28.0859 11.1703L26.8087 10.7963ZM9.8896 20.2013L11.1668 19.8271L12.4439 20.2013L12.0698 18.924L12.4439 17.6469L11.1668 18.021L9.8896 17.6469L10.2637 18.924L9.8896 20.2013ZM23.5031 7.49074L22.226 7.86482L22.6 6.58766L22.226 5.3105L23.5031 5.68457L24.7803 5.3105L24.4063 6.58766L24.7803 7.86482L23.5031 7.49074ZM13.1951 23.5067L14.4722 23.1327L15.7495 23.5067L15.3754 22.2296L15.7495 20.9524L14.4722 21.3265L13.1951 20.9524L13.5692 22.2296L13.1951 23.5067ZM26.8087 19.8271L25.5316 20.2013L25.9056 18.924L25.5316 17.6469L26.8087 18.021L28.0859 17.6469L27.7117 18.924L28.0859 20.2013L26.8087 19.8271ZM9.8896 11.1703L11.1668 10.7963L12.4439 11.1703L12.0698 9.89319L12.4439 8.61603L11.1668 8.9901L9.8896 8.61603L10.2637 9.89319L9.8896 11.1703ZM23.5031 23.1327L22.226 23.5067L22.6 22.2296L22.226 20.9524L23.5031 21.3265L24.7803 20.9524L24.4063 22.2296L24.7803 23.5067L23.5031 23.1327ZM13.1951 7.86482L14.4722 7.49074L15.7495 7.86482L15.3754 6.58766L15.7495 5.3105L14.4722 5.68457L13.1951 5.3105L13.5692 6.58766L13.1951 7.86482Z" fill="#FFD429"/>
</g>
</svg>
