<svg width="33" height="32" viewBox="0 0 33 32" fill="none" xmlns="http://www.w3.org/2000/svg">
<path d="M29.0273 16.0005C29.0232 19.1777 27.8575 22.2438 25.7496 24.6213C23.6418 26.9987 20.7374 28.5233 17.5835 28.908C17.5133 28.9159 17.4422 28.9089 17.3749 28.8873C17.3076 28.8658 17.2456 28.8302 17.193 28.783C17.1405 28.7357 17.0985 28.6779 17.0699 28.6132C17.0414 28.5486 17.0268 28.4786 17.0273 28.408V19.0005H20.0273C20.1644 19.0008 20.3001 18.9729 20.4259 18.9185C20.5518 18.8642 20.6651 18.7845 20.7589 18.6845C20.8527 18.5845 20.9249 18.4663 20.9711 18.3373C21.0172 18.2082 21.0364 18.071 21.0273 17.9342C21.0052 17.6771 20.8866 17.4378 20.6952 17.2646C20.5039 17.0914 20.2541 16.997 19.996 17.0005H17.0273V14.0005C17.0273 13.47 17.238 12.9613 17.6131 12.5862C17.9881 12.2112 18.4969 12.0005 19.0273 12.0005H21.0273C21.1644 12.0008 21.3001 11.9729 21.4259 11.9185C21.5518 11.8642 21.6651 11.7845 21.7589 11.6845C21.8527 11.5845 21.9249 11.4663 21.9711 11.3373C22.0172 11.2082 22.0364 11.071 22.0273 10.9342C22.0052 10.6766 21.8862 10.437 21.6943 10.2637C21.5025 10.0904 21.252 9.99634 20.9935 10.0005H19.0273C17.9664 10.0005 16.949 10.4219 16.1989 11.172C15.4487 11.9222 15.0273 12.9396 15.0273 14.0005V17.0005H12.0273C11.8902 17.0002 11.7545 17.028 11.6287 17.0824C11.5028 17.1367 11.3895 17.2164 11.2957 17.3164C11.2019 17.4164 11.1297 17.5346 11.0835 17.6636C11.0373 17.7927 11.0182 17.9299 11.0273 18.0667C11.0494 18.3243 11.1684 18.5639 11.3602 18.7372C11.5521 18.9105 11.8025 19.0046 12.061 19.0005H15.0273V28.4105C15.0277 28.481 15.0132 28.5509 14.9847 28.6154C14.9562 28.68 14.9144 28.7377 14.862 28.785C14.8095 28.8322 14.7477 28.8678 14.6806 28.8894C14.6134 28.9111 14.5424 28.9182 14.4723 28.9105C11.234 28.5161 8.26174 26.9203 6.14388 24.439C4.02602 21.9577 2.91689 18.7718 3.03604 15.5117C3.28604 8.76171 8.75354 3.27421 15.5085 3.01171C17.2574 2.94396 19.002 3.22965 20.6379 3.85166C22.2738 4.47368 23.7674 5.41925 25.0295 6.63183C26.2915 7.8444 27.2961 9.29906 27.983 10.9088C28.6699 12.5185 29.0251 14.2503 29.0273 16.0005Z" fill="white"/>
</svg>
