<svg width="377" height="374" viewBox="0 0 377 374" fill="none" xmlns="http://www.w3.org/2000/svg">
<path d="M97.3291 21.8882C75.1501 0.459695 39.1941 0.456054 17.0192 21.8801C-5.1557 43.3045 -5.15154 78.0435 17.0275 99.4719L279.251 352.822C301.432 374.25 337.388 374.254 359.563 352.83C381.738 331.406 381.734 296.667 359.555 275.238L97.3291 21.8882Z" fill="#02AA69"/>
<path d="M21.6813 281.703C0.442742 303.987 1.91893 338.681 24.9787 359.197C48.0371 379.711 83.9472 378.278 105.186 355.995L356.422 92.3927C377.661 70.1093 376.185 35.4147 353.126 14.8996C330.067 -5.61539 294.156 -4.18163 272.918 18.1024L21.6813 281.703Z" fill="#02AA69"/>
</svg>
