<svg width="38" height="27" viewBox="0 0 38 27" fill="none" xmlns="http://www.w3.org/2000/svg">
<path d="M32.9123 0.0478516H4.13455C3.04421 0.0478516 1.99854 0.480985 1.22755 1.25197C0.456571 2.02295 0.0234375 3.06863 0.0234375 4.15896L0.0234375 9.29785H37.0234V4.15896C37.0234 3.06863 36.5903 2.02295 35.8193 1.25197C35.0483 0.480985 34.0027 0.0478516 32.9123 0.0478516Z" fill="#CC212D"/>
<path d="M15.8749 17.5201H21.2039L18.5399 15.5837L15.8749 17.5201ZM19.5615 12.4418H22.8658L20.1925 14.3833L21.2111 17.5201H37.0234V9.29785H18.5399L19.5615 12.4418ZM16.8872 14.3833L14.214 12.4418H17.5183L18.5399 9.29785H0.0234375V17.5201H15.8677L16.8872 14.3833Z" fill="#FBD116"/>
<path d="M21.2131 17.5262L21.2039 17.52H15.8738L15.8646 17.5262L15.8677 17.52H0.0234375V22.6589C0.0234375 23.7492 0.456571 24.7949 1.22755 25.5659C1.99854 26.3369 3.04421 26.77 4.13455 26.77H32.9123C34.0027 26.77 35.0483 26.3369 35.8193 25.5659C36.5903 24.7949 37.0234 23.7492 37.0234 22.6589V17.52H21.2111L21.2131 17.5262Z" fill="#288541"/>
<path d="M14.2139 12.4418L16.8871 14.3833L15.8676 17.5201L15.8655 17.5262L15.8748 17.5201L18.5398 15.5837L21.2038 17.5201L21.213 17.5262L21.211 17.5201L20.1925 14.3833L22.8657 12.4418H19.5614L18.5398 9.29785L17.5182 12.4418H14.2139Z" fill="black"/>
</svg>
