<svg width="87" height="88" viewBox="0 0 87 88" fill="none" xmlns="http://www.w3.org/2000/svg">
<rect x="0.0234375" y="0.376953" width="86" height="87" rx="9.44" fill="#D40E14"/>
<path d="M30.4388 47.6404V38.8039C30.408 37.6319 29.9762 36.8917 29.1588 36.244C28.3415 35.5808 27.5858 35.257 26.4138 35.2416H25.9666C24.7637 35.2724 23.9772 35.658 23.1599 36.429C22.3426 37.1847 21.9262 37.9557 21.8953 39.0969V47.2703C21.9262 48.4115 22.3426 49.1825 23.1599 49.9382C23.9772 50.6938 24.7483 51.0948 25.9666 51.1256H26.4138C27.5704 51.1102 28.3415 50.7709 29.1588 50.1078C29.9762 49.4447 30.408 48.7507 30.4388 47.6404ZM29.9145 54.0711C29.7757 54.1636 29.6369 54.2716 29.4827 54.395L29.4364 54.4258C29.4056 54.4412 29.3747 54.4721 29.3439 54.4875C29.313 54.5183 29.2822 54.5338 29.2514 54.5492C29.2205 54.5646 29.1897 54.5954 29.1588 54.6109C29.128 54.6263 29.0971 54.6571 29.0663 54.6726C29.0355 54.688 28.9892 54.7188 28.9583 54.7342C28.9275 54.7497 28.8812 54.7805 28.8504 54.7959C28.8196 54.8113 28.7733 54.8422 28.7424 54.8576C28.7116 54.873 28.6653 54.8884 28.6345 54.9193C28.6037 54.9347 28.5574 54.9501 28.5111 54.9656C28.4803 54.981 28.434 54.9964 28.3878 55.0118C28.3415 55.0272 28.3106 55.0427 28.2644 55.0581C28.2335 55.0735 28.1873 55.0889 28.141 55.1043C28.0947 55.1198 28.0639 55.1352 28.0176 55.1506C27.9714 55.166 27.9405 55.1815 27.8943 55.1815C27.848 55.1969 27.8172 55.2123 27.7709 55.2123C27.7246 55.2277 27.6938 55.2277 27.6475 55.2431C27.6167 55.2586 27.5704 55.2586 27.5396 55.274C27.5087 55.274 27.4625 55.2894 27.4316 55.2894C27.4008 55.2894 27.3545 55.3048 27.3237 55.3048C26.861 55.3819 26.3984 55.4282 25.9049 55.4282H25.5502C23.2062 55.3665 21.2476 54.5954 19.6747 53.115C18.1017 51.6345 17.2843 49.7685 17.2227 47.5324V38.7268C17.2843 36.4907 18.1017 34.6247 19.6747 33.1443C21.2476 31.6638 23.2062 30.8927 25.5502 30.8311H26.0129C26.4601 30.8311 26.8765 30.8619 27.262 30.9236L27.3699 30.939C27.4008 30.939 27.447 30.9544 27.4933 30.9544C27.5396 30.9544 27.5704 30.9698 27.6167 30.9853C27.6629 31.0007 27.6938 31.0007 27.7401 31.0161C27.7863 31.0315 27.8172 31.0315 27.8634 31.047C27.9097 31.0624 27.9405 31.0624 27.9868 31.0778C28.0331 31.0932 28.0639 31.1086 28.1102 31.1086C28.141 31.1241 28.1873 31.1395 28.2335 31.1549C28.2798 31.1703 28.3106 31.1858 28.3569 31.2012C28.4032 31.2166 28.434 31.232 28.4803 31.2474C28.5265 31.2629 28.5574 31.2783 28.6037 31.2937C28.6345 31.3091 28.6808 31.3245 28.7116 31.34C28.7424 31.3554 28.7887 31.3708 28.8196 31.4016C28.8504 31.4171 28.8967 31.4325 28.9275 31.4633C28.9583 31.4788 28.9892 31.5096 29.0355 31.525L29.0663 31.5404L29.1126 31.5713L29.1588 31.6021L29.2051 31.633L29.2514 31.6638L29.2976 31.6947L29.3439 31.7255L29.3901 31.7563L29.4364 31.7872L29.4673 31.818L29.4981 31.8489L29.5289 31.8797L29.5598 31.9106L29.5906 31.9414L29.6215 31.9722L29.6523 32.0031L29.6832 32.0339L29.714 32.0648C29.714 32.0648 29.7448 32.0956 29.7757 32.1265C29.7911 32.1419 29.8219 32.1573 29.8374 32.1573C29.8682 32.1727 29.899 32.1727 29.9145 32.1881C29.9453 32.1881 29.9762 32.2036 30.007 32.2036C30.0378 32.2036 30.0687 32.2036 30.0995 32.1881C30.1304 32.1881 30.1612 32.1727 30.1766 32.1573C30.2075 32.1419 30.2229 32.1265 30.2537 32.111C30.2846 32.0956 30.3 32.0802 30.3154 32.0648C30.3308 32.0493 30.3463 32.0185 30.3617 32.0031C30.3771 31.9877 30.3925 31.9568 30.408 31.926C30.4234 31.8951 30.4234 31.8797 30.4388 31.8489C30.4388 31.818 30.4542 31.7872 30.4542 31.7563C30.4542 31.4633 30.4388 31.0778 30.7781 30.9699C30.9785 30.9082 31.2099 30.939 31.4103 30.939H33.3534H34.3867C34.6951 30.939 35.1423 30.8619 35.2811 31.232C35.3736 31.5096 35.312 32.0802 35.312 32.3732V36.4907V46.1137V51.1565C35.312 52.822 35.3736 54.5183 35.1886 56.1684C34.6643 60.7948 32.3511 64.7273 27.447 65.5909C24.4861 66.1152 21.5252 65.0512 19.2429 63.1697C18.9653 62.9384 18.3793 62.5529 18.4101 62.1519C18.4255 62.0131 18.4872 61.8898 18.5797 61.7818C18.5797 61.7818 20.4766 59.777 20.6154 59.592C20.7542 59.4378 20.9392 59.2219 21.1551 59.2219C21.4481 59.2219 21.772 59.4994 22.3117 59.8233C23.237 60.363 24.224 60.8565 25.288 61.0262C25.9512 61.1187 26.676 61.0262 27.3237 60.8257C29.8065 60.0238 30.5005 56.8778 30.6393 54.4258V54.3795C30.6393 54.3641 30.6393 54.3487 30.6393 54.3333C30.6393 54.3179 30.6393 54.3024 30.6393 54.287C30.6393 54.2716 30.6239 54.2562 30.6239 54.2407C30.6239 54.2253 30.6084 54.2099 30.6084 54.1945C30.6084 54.1791 30.593 54.1636 30.593 54.1636C30.593 54.1482 30.5776 54.1482 30.5776 54.1328C30.5776 54.1174 30.5622 54.1174 30.5467 54.102C30.5313 54.102 30.5313 54.0865 30.5159 54.0711C30.5005 54.0557 30.5005 54.0557 30.4851 54.0403C30.4696 54.0403 30.4696 54.0248 30.4542 54.0094C30.4388 54.0094 30.4388 53.994 30.4234 53.994C30.408 53.994 30.3925 53.9786 30.3925 53.9786C30.3771 53.9786 30.3617 53.9632 30.3463 53.9632C30.3308 53.9632 30.3154 53.9632 30.3 53.9477C30.2846 53.9477 30.2692 53.9477 30.2537 53.9477C30.2383 53.9477 30.2229 53.9477 30.2075 53.9477C30.1921 53.9477 30.1766 53.9477 30.1612 53.9477C30.1458 53.9477 30.1304 53.9477 30.115 53.9477C30.0995 53.9477 30.0841 53.9477 30.0687 53.9632C30.0533 53.9632 30.0378 53.9786 30.0378 53.9786C29.9762 54.0403 29.9299 54.0557 29.9145 54.0711Z" fill="white"/>
<path d="M68.8231 54.9045V51.666C68.8231 51.481 68.7768 51.3422 68.6689 51.2496C68.5763 51.1571 68.4375 51.1263 68.2833 51.1263H59.3852C59.1693 51.1263 59.0151 51.08 58.9225 51.0183C58.8454 50.9412 58.7837 50.8487 58.7837 50.7099C58.7837 50.5865 58.83 50.4169 58.8917 50.3244L68.6534 31.9112C68.6843 31.8495 68.6997 31.7878 68.7305 31.7261C68.746 31.6645 68.7614 31.5874 68.7614 31.5411C68.746 31.2635 68.5609 31.1247 68.1754 31.1093H52.1834C51.8133 31.0939 51.6436 31.2789 51.6436 31.649V34.8875C51.6282 35.2576 51.8133 35.4427 52.1834 35.4273H60.5264C60.7114 35.4273 60.8656 35.4581 60.9736 35.5352C61.0815 35.6123 61.1124 35.7203 61.1278 35.8591C61.1278 35.9208 61.1124 35.9825 61.097 36.0441C61.0815 36.1212 61.0507 36.1829 61.0198 36.2292L51.1656 54.6424C51.1347 54.704 51.1193 54.7657 51.0885 54.8274C51.073 54.9045 51.0576 54.9662 51.0576 55.0125C51.073 55.29 51.2581 55.4288 51.6591 55.4443H68.2987C68.4838 55.4443 68.6226 55.398 68.7151 55.3209C68.7768 55.2284 68.8231 55.0896 68.8231 54.9045Z" fill="white"/>
<path d="M41.1892 27.9788C41.2047 28.1639 41.2509 28.2873 41.3435 28.3798C41.4514 28.4877 41.6056 28.534 41.8369 28.5494H45.1988C45.4147 28.5494 45.5843 28.4877 45.6923 28.3798C45.7848 28.2873 45.8465 28.1485 45.8465 27.9788V27.8863V24.1543C45.8465 23.9384 45.7848 23.7534 45.6769 23.6608C45.5689 23.5529 45.4147 23.5066 45.1834 23.4912H44.9212C44.7053 23.4912 44.5357 23.5375 44.3506 23.7379L41.5285 26.8839L41.3897 27.0381C41.2355 27.2078 41.1738 27.362 41.1738 27.547V27.8709C41.1738 27.9172 41.1892 27.9788 41.1892 27.9788Z" fill="white"/>
<path d="M45.8153 31.6643C45.8153 31.4793 45.769 31.3251 45.6765 31.2325C45.5839 31.14 45.4297 31.0938 45.2292 31.0938H41.7286C41.5281 31.0938 41.3739 31.1554 41.2814 31.2634C41.1888 31.3713 41.1426 31.4947 41.1426 31.6643V31.7569V44.9113V54.8581C41.1426 55.0432 41.1888 55.1974 41.2814 55.2899C41.3739 55.3825 41.5281 55.4287 41.7286 55.4287H45.2292C45.4297 55.4287 45.5839 55.367 45.6765 55.2591C45.769 55.1511 45.8153 55.0278 45.8153 54.8581V31.6643Z" fill="white"/>
</svg>
