<svg width="226" height="109" viewBox="0 0 226 109" fill="none" xmlns="http://www.w3.org/2000/svg">
<rect x="0.988281" y="0.429688" width="224.062" height="107.64" rx="10" fill="#D40E14"/>
<rect x="70.0195" y="10.75" width="86" height="87" rx="9.44" fill="#D40E14"/>
<path d="M100.435 58.0134V49.177C100.404 48.0049 99.9723 47.2647 99.1549 46.617C98.3376 45.9539 97.5819 45.63 96.4099 45.6146H95.9627C94.7598 45.6455 93.9733 46.031 93.156 46.8021C92.3387 47.5577 91.9223 48.3288 91.8914 49.47V57.6433C91.9223 58.7845 92.3387 59.5556 93.156 60.3112C93.9733 61.0669 94.7444 61.4678 95.9627 61.4987H96.4099C97.5665 61.4833 98.3376 61.144 99.1549 60.4809C99.9723 59.8177 100.404 59.1238 100.435 58.0134ZM99.9106 64.4442C99.7718 64.5367 99.633 64.6446 99.4788 64.768L99.4325 64.7988C99.4017 64.8143 99.3708 64.8451 99.34 64.8605C99.3091 64.8914 99.2783 64.9068 99.2474 64.9222C99.2166 64.9376 99.1858 64.9685 99.1549 64.9839C99.1241 64.9993 99.0932 65.0302 99.0624 65.0456C99.0315 65.061 98.9853 65.0919 98.9544 65.1073C98.9236 65.1227 98.8773 65.1535 98.8465 65.169C98.8156 65.1844 98.7694 65.2152 98.7385 65.2306C98.7077 65.2461 98.6614 65.2615 98.6306 65.2923C98.5997 65.3078 98.5535 65.3232 98.5072 65.3386C98.4764 65.354 98.4301 65.3694 98.3838 65.3849C98.3376 65.4003 98.3067 65.4157 98.2605 65.4311C98.2296 65.4466 98.1834 65.462 98.1371 65.4774C98.0908 65.4928 98.06 65.5082 98.0137 65.5237C97.9675 65.5391 97.9366 65.5545 97.8904 65.5545C97.8441 65.5699 97.8133 65.5853 97.767 65.5853C97.7207 65.6008 97.6899 65.6008 97.6436 65.6162C97.6128 65.6316 97.5665 65.6316 97.5357 65.647C97.5048 65.647 97.4586 65.6625 97.4277 65.6625C97.3969 65.6625 97.3506 65.6779 97.3198 65.6779C96.8571 65.755 96.3945 65.8012 95.901 65.8012H95.5463C93.2023 65.7396 91.2437 64.9685 89.6708 63.488C88.0978 62.0076 87.2804 60.1416 87.2188 57.9055V49.0999C87.2804 46.8638 88.0978 44.9978 89.6708 43.5173C91.2437 42.0369 93.2023 41.2658 95.5463 41.2041H96.0089C96.4562 41.2041 96.8725 41.2349 97.2581 41.2966L97.366 41.3121C97.3969 41.3121 97.4431 41.3275 97.4894 41.3275C97.5357 41.3275 97.5665 41.3429 97.6128 41.3583C97.659 41.3737 97.6899 41.3737 97.7361 41.3892C97.7824 41.4046 97.8133 41.4046 97.8595 41.42C97.9058 41.4354 97.9366 41.4354 97.9829 41.4508C98.0292 41.4663 98.06 41.4817 98.1063 41.4817C98.1371 41.4971 98.1834 41.5125 98.2296 41.528C98.2759 41.5434 98.3067 41.5588 98.353 41.5742C98.3993 41.5896 98.4301 41.6051 98.4764 41.6205C98.5226 41.6359 98.5535 41.6513 98.5997 41.6667C98.6306 41.6822 98.6769 41.6976 98.7077 41.713C98.7385 41.7284 98.7848 41.7439 98.8156 41.7747C98.8465 41.7901 98.8928 41.8055 98.9236 41.8364C98.9544 41.8518 98.9853 41.8826 99.0315 41.8981L99.0624 41.9135L99.1087 41.9443L99.1549 41.9752L99.2012 42.006L99.2474 42.0369L99.2937 42.0677L99.34 42.0985L99.3862 42.1294L99.4325 42.1602L99.4633 42.1911L99.4942 42.2219L99.525 42.2528L99.5559 42.2836L99.5867 42.3144L99.6176 42.3453L99.6484 42.3761L99.6792 42.407L99.7101 42.4378C99.7101 42.4378 99.7409 42.4687 99.7718 42.4995C99.7872 42.5149 99.818 42.5303 99.8335 42.5303C99.8643 42.5458 99.8951 42.5458 99.9106 42.5612C99.9414 42.5612 99.9723 42.5766 100.003 42.5766C100.034 42.5766 100.065 42.5766 100.096 42.5612C100.126 42.5612 100.157 42.5458 100.173 42.5303C100.204 42.5149 100.219 42.4995 100.25 42.4841C100.281 42.4687 100.296 42.4532 100.312 42.4378C100.327 42.4224 100.342 42.3916 100.358 42.3761C100.373 42.3607 100.389 42.3299 100.404 42.299C100.419 42.2682 100.419 42.2528 100.435 42.2219C100.435 42.1911 100.45 42.1602 100.45 42.1294C100.45 41.8364 100.435 41.4508 100.774 41.3429C100.975 41.2812 101.206 41.3121 101.406 41.3121H103.35H104.383C104.691 41.3121 105.138 41.2349 105.277 41.6051C105.37 41.8826 105.308 42.4532 105.308 42.7462V46.8638V56.4867V61.5295C105.308 63.195 105.37 64.8914 105.185 66.5415C104.66 71.1679 102.347 75.1003 97.4431 75.964C94.4822 76.4883 91.5213 75.4242 89.239 73.5428C88.9614 73.3115 88.3754 72.9259 88.4062 72.525C88.4216 72.3862 88.4833 72.2628 88.5758 72.1549C88.5758 72.1549 90.4727 70.1501 90.6115 69.965C90.7503 69.8108 90.9353 69.5949 91.1512 69.5949C91.4442 69.5949 91.7681 69.8725 92.3078 70.1963C93.2331 70.7361 94.2201 71.2296 95.2841 71.3992C95.9473 71.4917 96.6721 71.3992 97.3198 71.1987C99.8026 70.3968 100.497 67.2509 100.635 64.7988V64.7526C100.635 64.7372 100.635 64.7217 100.635 64.7063C100.635 64.6909 100.635 64.6755 100.635 64.6601C100.635 64.6446 100.62 64.6292 100.62 64.6138C100.62 64.5984 100.605 64.583 100.605 64.5675C100.605 64.5521 100.589 64.5367 100.589 64.5367C100.589 64.5213 100.574 64.5213 100.574 64.5058C100.574 64.4904 100.558 64.4904 100.543 64.475C100.527 64.475 100.527 64.4596 100.512 64.4442C100.497 64.4287 100.497 64.4287 100.481 64.4133C100.466 64.4133 100.466 64.3979 100.45 64.3825C100.435 64.3825 100.435 64.3671 100.419 64.3671C100.404 64.3671 100.389 64.3516 100.389 64.3516C100.373 64.3516 100.358 64.3362 100.342 64.3362C100.327 64.3362 100.312 64.3362 100.296 64.3208C100.281 64.3208 100.265 64.3208 100.25 64.3208C100.234 64.3208 100.219 64.3208 100.204 64.3208C100.188 64.3208 100.173 64.3208 100.157 64.3208C100.142 64.3208 100.126 64.3208 100.111 64.3208C100.096 64.3208 100.08 64.3208 100.065 64.3362C100.049 64.3362 100.034 64.3516 100.034 64.3516C99.9723 64.4133 99.926 64.4287 99.9106 64.4442Z" fill="white"/>
<path d="M138.819 65.2776V62.0391C138.819 61.854 138.773 61.7152 138.665 61.6227C138.572 61.5302 138.434 61.4993 138.279 61.4993H129.381C129.165 61.4993 129.011 61.4531 128.919 61.3914C128.842 61.3143 128.78 61.2217 128.78 61.0829C128.78 60.9596 128.826 60.7899 128.888 60.6974L138.65 42.2842C138.68 42.2226 138.696 42.1609 138.727 42.0992C138.742 42.0375 138.757 41.9604 138.757 41.9141C138.742 41.6365 138.557 41.4978 138.171 41.4823H122.179C121.809 41.4669 121.64 41.652 121.64 42.0221V45.2606C121.624 45.6307 121.809 45.8158 122.179 45.8003H130.522C130.708 45.8003 130.862 45.8312 130.97 45.9083C131.078 45.9854 131.108 46.0933 131.124 46.2321C131.124 46.2938 131.108 46.3555 131.093 46.4172C131.078 46.4943 131.047 46.556 131.016 46.6022L121.162 65.0154C121.131 65.0771 121.115 65.1388 121.085 65.2005C121.069 65.2776 121.054 65.3392 121.054 65.3855C121.069 65.6631 121.254 65.8019 121.655 65.8173H138.295C138.48 65.8173 138.619 65.771 138.711 65.6939C138.773 65.6014 138.819 65.4626 138.819 65.2776Z" fill="white"/>
<path d="M111.185 38.3519C111.201 38.5369 111.247 38.6603 111.34 38.7528C111.448 38.8608 111.602 38.9071 111.833 38.9225H115.195C115.411 38.9225 115.58 38.8608 115.688 38.7528C115.781 38.6603 115.843 38.5215 115.843 38.3519V38.2594V34.5274C115.843 34.3115 115.781 34.1264 115.673 34.0339C115.565 33.9259 115.411 33.8797 115.179 33.8643H114.917C114.701 33.8643 114.532 33.9105 114.347 34.111L111.525 37.257L111.386 37.4112C111.232 37.5808 111.17 37.735 111.17 37.9201V38.2439C111.17 38.2902 111.185 38.3519 111.185 38.3519Z" fill="white"/>
<path d="M115.811 42.0374C115.811 41.8523 115.765 41.6981 115.673 41.6056C115.58 41.5131 115.426 41.4668 115.225 41.4668H111.725C111.524 41.4668 111.37 41.5285 111.277 41.6364C111.185 41.7444 111.139 41.8678 111.139 42.0374V42.1299V55.2844V65.2312C111.139 65.4162 111.185 65.5705 111.277 65.663C111.37 65.7555 111.524 65.8018 111.725 65.8018H115.225C115.426 65.8018 115.58 65.7401 115.673 65.6321C115.765 65.5242 115.811 65.4008 115.811 65.2312V42.0374Z" fill="white"/>
</svg>
