<svg width="88" height="89" viewBox="0 0 88 89" fill="none" xmlns="http://www.w3.org/2000/svg">
<path d="M68.7503 53.8818C66.2617 53.8799 63.87 54.8465 62.0815 56.5768L52.3603 49.0143C53.1905 47.5663 53.6266 45.926 53.6253 44.2568C53.6251 43.6805 53.5733 43.1052 53.4706 42.5381L60.1565 40.3209C61.2506 42.5018 63.1302 44.1872 65.417 45.0379C67.7038 45.8886 70.228 45.8413 72.4814 44.9057C74.7348 43.97 76.55 42.2154 77.5617 39.9951C78.5734 37.7749 78.7064 35.2537 77.9339 32.9394C77.1614 30.625 75.5408 28.6891 73.3984 27.5216C71.2559 26.3541 68.7507 26.0416 66.3871 26.6469C64.0235 27.2523 61.977 28.7306 60.6596 30.7843C59.3421 32.838 58.8517 35.3145 59.2868 37.7153L52.594 39.9428C51.7945 38.3481 50.5674 37.007 49.0499 36.0692C47.5324 35.1314 45.7842 34.6337 44.0003 34.6318C43.1167 34.6314 42.2375 34.7541 41.3878 34.9962L38.1222 27.6503C40.0846 26.4138 41.5345 24.5103 42.2052 22.2899C42.8759 20.0695 42.7222 17.6815 41.7724 15.5655C40.8225 13.4494 39.1405 11.7474 37.0357 10.7728C34.9309 9.79815 32.545 9.61637 30.3168 10.2609C28.0887 10.9054 26.1682 12.3329 24.9088 14.2806C23.6494 16.2284 23.1357 18.5655 23.4622 20.8619C23.7888 23.1583 24.9336 25.2595 26.6861 26.779C28.4385 28.2985 30.6808 29.134 33.0003 29.1318C33.8838 29.1323 34.7631 29.0096 35.6128 28.7675L38.8784 36.1134C37.7929 36.7942 36.8545 37.6853 36.1185 38.7342C35.3825 39.7831 34.8637 40.9687 34.5927 42.221C34.3217 43.4734 34.304 44.7674 34.5406 46.0267C34.7772 47.2861 35.2633 48.4854 35.9703 49.554L25.4378 58.904C23.5795 57.3334 21.1954 56.5248 18.765 56.641C16.3347 56.7572 14.0385 57.7895 12.3386 59.5302C10.6386 61.271 9.66098 63.5909 9.6024 66.0233C9.54383 68.4557 10.4086 70.82 12.0229 72.6406C13.6371 74.4611 15.8809 75.6028 18.3028 75.8358C20.7247 76.0688 23.145 75.3759 25.0767 73.8966C27.0084 72.4172 28.3082 70.2612 28.7145 67.8622C29.1208 65.4632 28.6034 62.9994 27.2665 60.9665L37.7853 51.6165C39.6013 53.1539 41.9236 53.962 44.3017 53.8838C46.6798 53.8057 48.9441 52.847 50.6553 51.1937L60.3765 58.7562C59.3323 60.5962 58.9234 62.7289 59.2131 64.8246C59.5027 66.9203 60.4748 68.8622 61.9789 70.3499C63.4831 71.8377 65.4355 72.7884 67.5343 73.0551C69.633 73.3217 71.7611 72.8895 73.5896 71.8252C75.418 70.7608 76.8448 69.1238 77.6493 67.1671C78.4538 65.2104 78.5913 63.0432 78.0404 61.0005C77.4895 58.9579 76.281 57.1537 74.6017 55.8669C72.9224 54.5801 70.8659 53.8825 68.7503 53.8818ZM68.7503 29.1318C70.11 29.1318 71.4392 29.5351 72.5698 30.2905C73.7004 31.0459 74.5816 32.1196 75.1019 33.3759C75.6223 34.6321 75.7584 36.0145 75.4932 37.3481C75.2279 38.6817 74.5731 39.9067 73.6116 40.8682C72.6501 41.8297 71.4251 42.4845 70.0915 42.7497C68.7579 43.015 67.3756 42.8789 66.1193 42.3585C64.8631 41.8382 63.7894 40.957 63.0339 39.8264C62.2785 38.6958 61.8753 37.3666 61.8753 36.0068C61.8753 34.1835 62.5996 32.4348 63.8889 31.1455C65.1782 29.8562 66.9269 29.1318 68.7503 29.1318ZM26.1253 19.5068C26.1253 18.1471 26.5285 16.8179 27.2839 15.6873C28.0394 14.5567 29.1131 13.6755 30.3693 13.1552C31.6256 12.6348 33.0079 12.4987 34.3415 12.7639C35.6751 13.0292 36.9002 13.684 37.8616 14.6455C38.8231 15.607 39.4779 16.832 39.7432 18.1656C40.0084 19.4992 39.8723 20.8815 39.3519 22.1378C38.8316 23.394 37.9504 24.4678 36.8198 25.2232C35.6892 25.9786 34.36 26.3818 33.0003 26.3818C31.1769 26.3818 29.4282 25.6575 28.1389 24.3682C26.8496 23.0789 26.1253 21.3302 26.1253 19.5068ZM19.2503 73.1318C17.8905 73.1318 16.5613 72.7286 15.4307 71.9732C14.3001 71.2178 13.419 70.144 12.8986 68.8878C12.3783 67.6315 12.2421 66.2492 12.5074 64.9156C12.7727 63.582 13.4274 62.357 14.3889 61.3955C15.3504 60.434 16.5754 59.7792 17.909 59.5139C19.2427 59.2487 20.625 59.3848 21.8812 59.9052C23.1375 60.4255 24.2112 61.3067 24.9666 62.4373C25.7221 63.5679 26.1253 64.8971 26.1253 66.2568C26.1253 68.0802 25.4009 69.8289 24.1116 71.1182C22.8223 72.4075 21.0736 73.1318 19.2503 73.1318ZM44.0003 51.1318C42.6405 51.1318 41.3113 50.7286 40.1807 49.9732C39.0501 49.2178 38.169 48.144 37.6486 46.8878C37.1283 45.6315 36.9921 44.2492 37.2574 42.9156C37.5227 41.582 38.1774 40.357 39.1389 39.3955C40.1004 38.434 41.3254 37.7792 42.659 37.5139C43.9926 37.2487 45.375 37.3848 46.6312 37.9052C47.8875 38.4255 48.9612 39.3067 49.7166 40.4373C50.4721 41.5679 50.8753 42.8971 50.8753 44.2568C50.8753 46.0802 50.1509 47.8289 48.8616 49.1182C47.5723 50.4075 45.8236 51.1318 44.0003 51.1318ZM68.7503 70.3818C67.3905 70.3818 66.0613 69.9786 64.9307 69.2232C63.8001 68.4678 62.919 67.394 62.3986 66.1378C61.8783 64.8815 61.7421 63.4992 62.0074 62.1656C62.2726 60.832 62.9274 59.607 63.8889 58.6455C64.8504 57.684 66.0754 57.0292 67.409 56.7639C68.7426 56.4987 70.125 56.6348 71.3812 57.1552C72.6375 57.6755 73.7112 58.5567 74.4666 59.6873C75.2221 60.8179 75.6253 62.1471 75.6253 63.5068C75.6253 65.3302 74.9009 67.0789 73.6116 68.3682C72.3223 69.6575 70.5736 70.3818 68.7503 70.3818Z" fill="white"/>
</svg>
