<svg width="89" height="89" viewBox="0 0 89 89" fill="none" xmlns="http://www.w3.org/2000/svg">
<path d="M68.7737 53.6475C66.2851 53.6456 63.8935 54.6121 62.105 56.3425L52.3837 48.78C53.2139 47.3319 53.6501 45.6916 53.6487 44.0225C53.6486 43.4461 53.5968 42.8709 53.494 42.3037L60.18 40.0865C61.274 42.2674 63.1536 43.9528 65.4405 44.8035C67.7273 45.6542 70.2514 45.6069 72.5048 44.6713C74.7582 43.7356 76.5735 41.9811 77.5851 39.7608C78.5968 37.5405 78.7298 35.0194 77.9573 32.705C77.1848 30.3906 75.5642 28.4548 73.4218 27.2872C71.2794 26.1197 68.7742 25.8072 66.4106 26.4126C64.0469 27.0179 62.0004 28.4963 60.683 30.5499C59.3656 32.6036 58.8751 35.0801 59.3103 37.4809L52.6175 39.7084C51.8179 38.1137 50.5909 36.7726 49.0734 35.8348C47.5559 34.897 45.8076 34.3994 44.0237 34.3975C43.1402 34.397 42.2609 34.5197 41.4112 34.7618L38.1456 27.4159C40.108 26.1795 41.558 24.2759 42.2287 22.0555C42.8993 19.8351 42.7456 17.4472 41.7958 15.3311C40.846 13.215 39.1639 11.5131 37.0592 10.5384C34.9544 9.56378 32.5684 9.382 30.3403 10.0265C28.1121 10.671 26.1917 12.0985 24.9322 14.0463C23.6728 15.994 23.1591 18.3311 23.4856 20.6275C23.8122 22.9239 24.957 25.0251 26.7095 26.5446C28.462 28.0641 30.7042 28.8996 33.0237 28.8975C33.9072 28.8979 34.7865 28.7753 35.6362 28.5331L38.9018 35.879C37.8163 36.5598 36.8779 37.4509 36.1419 38.4998C35.4059 39.5487 34.8871 40.7343 34.6162 41.9867C34.3452 43.2391 34.3275 44.533 34.564 45.7923C34.8006 47.0517 35.2867 48.251 35.9937 49.3197L25.4612 58.6697C23.6029 57.099 21.2188 56.2905 18.7885 56.4066C16.3581 56.5228 14.062 57.5551 12.362 59.2958C10.662 61.0366 9.68441 63.3565 9.62584 65.7889C9.56726 68.2213 10.4321 70.5857 12.0463 72.4062C13.6605 74.2267 15.9043 75.3684 18.3262 75.6014C20.7482 75.8344 23.1685 75.1416 25.1002 73.6622C27.0319 72.1828 28.3316 70.0268 28.7379 67.6278C29.1442 65.2289 28.6268 62.7651 27.29 60.7322L37.8087 51.3822C39.6247 52.9196 41.947 53.7276 44.3251 53.6495C46.7032 53.5713 48.9675 52.6126 50.6787 50.9593L60.4 58.5218C59.3558 60.3618 58.9469 62.4946 59.2365 64.5903C59.5262 66.6859 60.4982 68.6278 62.0024 70.1156C63.5065 71.6033 65.459 72.554 67.5577 72.8207C69.6564 73.0874 71.7846 72.6551 73.613 71.5908C75.4414 70.5265 76.8682 68.8894 77.6727 66.9327C78.4773 64.976 78.6147 62.8088 78.0638 60.7662C77.5129 58.7235 76.3044 56.9193 74.6251 55.6325C72.9458 54.3457 70.8893 53.6481 68.7737 53.6475ZM68.7737 28.8975C70.1335 28.8975 71.4627 29.3007 72.5933 30.0561C73.7238 30.8115 74.605 31.8853 75.1254 33.1415C75.6457 34.3978 75.7819 35.7801 75.5166 37.1137C75.2513 38.4473 74.5966 39.6723 73.6351 40.6338C72.6736 41.5953 71.4486 42.2501 70.115 42.5154C68.7813 42.7806 67.399 42.6445 66.1428 42.1241C64.8865 41.6038 63.8128 40.7226 63.0574 39.592C62.3019 38.4614 61.8987 37.1322 61.8987 35.7725C61.8987 33.9491 62.623 32.2004 63.9124 30.9111C65.2017 29.6218 66.9503 28.8975 68.7737 28.8975ZM26.1487 19.2725C26.1487 17.9127 26.5519 16.5835 27.3074 15.4529C28.0628 14.3223 29.1365 13.4411 30.3928 12.9208C31.649 12.4004 33.0313 12.2643 34.365 12.5296C35.6986 12.7948 36.9236 13.4496 37.8851 14.4111C38.8466 15.3726 39.5013 16.5976 39.7666 17.9312C40.0319 19.2648 39.8957 20.6472 39.3754 21.9034C38.855 23.1597 37.9738 24.2334 36.8433 24.9888C35.7127 25.7443 34.3835 26.1475 33.0237 26.1475C31.2004 26.1475 29.4517 25.4231 28.1624 24.1338C26.873 22.8445 26.1487 21.0958 26.1487 19.2725ZM19.2737 72.8975C17.914 72.8975 16.5848 72.4943 15.4542 71.7388C14.3236 70.9834 13.4424 69.9097 12.922 68.6534C12.4017 67.3972 12.2655 66.0148 12.5308 64.6812C12.7961 63.3476 13.4509 62.1226 14.4124 61.1611C15.3738 60.1996 16.5988 59.5448 17.9325 59.2796C19.2661 59.0143 20.6484 59.1504 21.9047 59.6708C23.1609 60.1911 24.2346 61.0723 24.9901 62.2029C25.7455 63.3335 26.1487 64.6627 26.1487 66.0225C26.1487 67.8458 25.4244 69.5945 24.1351 70.8838C22.8458 72.1731 21.0971 72.8975 19.2737 72.8975ZM44.0237 50.8975C42.664 50.8975 41.3348 50.4943 40.2042 49.7388C39.0736 48.9834 38.1924 47.9097 37.672 46.6534C37.1517 45.3972 37.0155 44.0148 37.2808 42.6812C37.5461 41.3476 38.2009 40.1226 39.1624 39.1611C40.1238 38.1996 41.3488 37.5448 42.6825 37.2796C44.0161 37.0143 45.3984 37.1504 46.6547 37.6708C47.9109 38.1911 48.9846 39.0723 49.7401 40.2029C50.4955 41.3335 50.8987 42.6627 50.8987 44.0225C50.8987 45.8458 50.1744 47.5945 48.8851 48.8838C47.5958 50.1731 45.8471 50.8975 44.0237 50.8975ZM68.7737 70.1475C67.414 70.1475 66.0848 69.7443 64.9542 68.9888C63.8236 68.2334 62.9424 67.1597 62.422 65.9034C61.9017 64.6472 61.7655 63.2648 62.0308 61.9312C62.2961 60.5976 62.9509 59.3726 63.9124 58.4111C64.8738 57.4496 66.0988 56.7948 67.4325 56.5296C68.7661 56.2643 70.1484 56.4004 71.4047 56.9208C72.6609 57.4411 73.7346 58.3223 74.4901 59.4529C75.2455 60.5835 75.6487 61.9127 75.6487 63.2725C75.6487 65.0958 74.9244 66.8445 73.6351 68.1338C72.3458 69.4231 70.5971 70.1475 68.7737 70.1475Z" fill="black"/>
</svg>
