<svg width="33" height="32" viewBox="0 0 33 32" fill="none" xmlns="http://www.w3.org/2000/svg">
<path d="M27.0273 3H5.02734C4.49691 3 3.9882 3.21071 3.61313 3.58579C3.23806 3.96086 3.02734 4.46957 3.02734 5V27C3.02734 27.5304 3.23806 28.0391 3.61313 28.4142C3.9882 28.7893 4.49691 29 5.02734 29H27.0273C27.5578 29 28.0665 28.7893 28.4416 28.4142C28.8166 28.0391 29.0273 27.5304 29.0273 27V5C29.0273 4.46957 28.8166 3.96086 28.4416 3.58579C28.0665 3.21071 27.5578 3 27.0273 3ZM12.0273 22C12.0273 22.2652 11.922 22.5196 11.7345 22.7071C11.5469 22.8946 11.2926 23 11.0273 23C10.7621 23 10.5078 22.8946 10.3202 22.7071C10.1327 22.5196 10.0273 22.2652 10.0273 22V14C10.0273 13.7348 10.1327 13.4804 10.3202 13.2929C10.5078 13.1054 10.7621 13 11.0273 13C11.2926 13 11.5469 13.1054 11.7345 13.2929C11.922 13.4804 12.0273 13.7348 12.0273 14V22ZM11.0273 12C10.7307 12 10.4407 11.912 10.194 11.7472C9.94732 11.5824 9.75506 11.3481 9.64152 11.074C9.52799 10.7999 9.49829 10.4983 9.55617 10.2074C9.61404 9.91639 9.7569 9.64912 9.96668 9.43934C10.1765 9.22956 10.4437 9.0867 10.7347 9.02882C11.0257 8.97094 11.3273 9.00065 11.6014 9.11418C11.8755 9.22771 12.1097 9.41997 12.2745 9.66665C12.4394 9.91332 12.5273 10.2033 12.5273 10.5C12.5273 10.8978 12.3693 11.2794 12.088 11.5607C11.8067 11.842 11.4252 12 11.0273 12ZM23.0273 22C23.0273 22.2652 22.922 22.5196 22.7345 22.7071C22.5469 22.8946 22.2926 23 22.0273 23C21.7621 23 21.5078 22.8946 21.3202 22.7071C21.1327 22.5196 21.0273 22.2652 21.0273 22V17.5C21.0273 16.837 20.764 16.2011 20.2951 15.7322C19.8263 15.2634 19.1904 15 18.5273 15C17.8643 15 17.2284 15.2634 16.7596 15.7322C16.2907 16.2011 16.0273 16.837 16.0273 17.5V22C16.0273 22.2652 15.922 22.5196 15.7345 22.7071C15.5469 22.8946 15.2926 23 15.0273 23C14.7621 23 14.5078 22.8946 14.3202 22.7071C14.1327 22.5196 14.0273 22.2652 14.0273 22V14C14.0286 13.7551 14.1197 13.5191 14.2834 13.3369C14.447 13.1546 14.6719 13.0388 14.9153 13.0114C15.1587 12.9839 15.4037 13.0468 15.6039 13.188C15.804 13.3292 15.9454 13.539 16.0011 13.7775C16.6776 13.3186 17.4663 13.0526 18.2825 13.0081C19.0988 12.9637 19.9117 13.1424 20.634 13.5251C21.3564 13.9078 21.9608 14.48 22.3825 15.1803C22.8041 15.8806 23.0271 16.6825 23.0273 17.5V22Z" fill="white"/>
</svg>
