<svg width="99" height="49" viewBox="0 0 99 49" fill="none" xmlns="http://www.w3.org/2000/svg">
<path d="M49.4386 0.129883C22.5498 0.129883 0.751953 11.0297 0.751953 24.4732C0.751953 37.9167 22.5498 48.8165 49.4386 48.8165C76.3274 48.8165 98.1269 37.9167 98.1269 24.4732C98.1269 11.0297 76.3257 0.129883 49.4386 0.129883ZM49.4386 44.9743C24.6727 44.9743 4.59591 35.7955 4.59591 24.4732C4.59591 13.1509 24.6727 3.97384 49.4386 3.97384C74.2044 3.97384 94.283 13.1509 94.283 24.4732C94.283 35.7955 74.2062 44.9743 49.4386 44.9743ZM43.2999 20.2033V16.3593H57.0406V20.2033H52.094V32.5922H48.2449V20.2033H43.2999ZM73.6153 16.3593V32.5922H69.7714L62.7997 22.9308V32.5922H58.9574V16.3593H62.7997L69.7714 26.0207V16.3593H73.6153ZM25.1502 32.5922V16.3593H28.9942L33.2641 22.9274L37.534 16.3593H41.378V32.5922H37.534V23.4083L34.6141 27.8895H31.9089L28.989 23.4083V32.5922H25.1502Z" fill="black"/>
</svg>
