<svg width="225" height="109" viewBox="0 0 225 109" fill="none" xmlns="http://www.w3.org/2000/svg">
<rect x="0.863281" y="0.429688" width="224.062" height="107.64" rx="10" fill="#FFCC00"/>
<path d="M112.893 21.8701C77.128 21.8701 48.1348 36.3679 48.1348 54.2491C48.1348 72.1303 77.128 86.6281 112.893 86.6281C148.657 86.6281 177.653 72.1303 177.653 54.2491C177.653 36.3679 148.655 21.8701 112.893 21.8701ZM112.893 81.5175C79.9517 81.5175 53.2476 69.3089 53.2476 54.2491C53.2476 39.1893 79.9517 26.9829 112.893 26.9829C145.834 26.9829 172.54 39.1893 172.54 54.2491C172.54 69.3089 145.836 81.5175 112.893 81.5175ZM104.728 48.5697V43.4569H123.004V48.5697H116.425V65.0482H111.305V48.5697H104.728ZM145.05 43.4569V65.0482H139.937L130.664 52.1976V65.0482H125.554V43.4569H130.664L139.937 56.3075V43.4569H145.05ZM80.5868 65.0482V43.4569H85.6997L91.3791 52.193L97.0585 43.4569H102.171V65.0482H97.0585V52.8327L93.1747 58.7931H89.5766L85.6928 52.8327V65.0482H80.5868Z" fill="black"/>
</svg>
