<svg width="89" height="89" viewBox="0 0 89 89" fill="none" xmlns="http://www.w3.org/2000/svg">
<path d="M83.8981 32.3811C83.8994 31.8396 83.7935 31.3032 83.5864 30.8029C83.3793 30.3026 83.0752 29.8482 82.6916 29.4661L59.0794 5.85388C58.6962 5.46932 58.2408 5.16419 57.7394 4.95599C57.238 4.7478 56.7004 4.64062 56.1575 4.64062C55.6146 4.64063 55.077 4.7478 54.5756 4.95599C54.0742 5.16419 53.6189 5.46932 53.2356 5.85388L43.26 15.8398L23.0269 23.4264C22.3499 23.6819 21.7517 24.1102 21.2915 24.6686C20.8314 25.227 20.5255 25.8962 20.4041 26.6095L12.4153 74.5454C12.3823 74.7426 12.3928 74.9446 12.4458 75.1373C12.4989 75.3301 12.5933 75.5089 12.7226 75.6614C12.8519 75.8139 13.0128 75.9364 13.1942 76.0203C13.3757 76.1042 13.5732 76.1476 13.7731 76.1473C13.8491 76.1467 13.9249 76.141 14 76.1301L61.9325 68.1379C62.6468 68.0194 63.3174 67.715 63.8767 67.2552C64.4361 66.7954 64.8646 66.1964 65.1191 65.5186L72.7056 45.2854L82.6744 35.3167C83.0637 34.9336 83.3726 34.4766 83.5827 33.9725C83.7929 33.4683 83.9001 32.9272 83.8981 32.3811ZM62.5444 64.5526C62.4596 64.7786 62.3167 64.9782 62.1303 65.1315C61.9438 65.2848 61.7203 65.3862 61.4822 65.4258L17.7813 72.7098L37.8735 52.6176C39.5596 53.8159 41.6343 54.3371 43.6865 54.0778C45.7388 53.8186 47.6187 52.7979 48.9539 51.2179C50.289 49.638 50.982 47.6141 50.8954 45.5474C50.8087 43.4807 49.9489 41.5219 48.4862 40.0592C47.0235 38.5966 45.0648 37.7367 42.998 37.6501C40.9313 37.5635 38.9075 38.2564 37.3275 39.5916C35.7476 40.9267 34.7269 42.8067 34.4676 44.8589C34.2084 46.9112 34.7295 48.9859 35.9278 50.672L15.8356 70.7676L23.1197 27.0633C23.1592 26.8251 23.2607 26.6016 23.414 26.4152C23.5672 26.2287 23.7669 26.0859 23.9928 26.0011L43.6794 18.6173L69.9247 44.8661L62.5444 64.5526ZM37.1481 45.8973C37.1481 44.8095 37.4707 43.7462 38.0751 42.8417C38.6794 41.9372 39.5384 41.2323 40.5434 40.816C41.5484 40.3997 42.6542 40.2908 43.7211 40.503C44.788 40.7152 45.768 41.239 46.5372 42.0082C47.3064 42.7774 47.8302 43.7574 48.0425 44.8243C48.2547 45.8912 48.1458 46.9971 47.7295 48.0021C47.3132 49.0071 46.6083 49.866 45.7038 50.4704C44.7993 51.0747 43.7359 51.3973 42.6481 51.3973C41.1895 51.3973 39.7905 50.8178 38.7591 49.7864C37.7276 48.7549 37.1481 47.356 37.1481 45.8973ZM80.746 33.3539L71.5231 42.5767L45.9688 17.0223L55.1881 7.80294C55.3158 7.6751 55.4675 7.57368 55.6344 7.50448C55.8013 7.43529 55.9803 7.39967 56.161 7.39967C56.3417 7.39967 56.5206 7.43529 56.6875 7.50448C56.8544 7.57368 57.0061 7.6751 57.1338 7.80294L80.746 31.4151C81.0031 31.6729 81.1475 32.0221 81.1475 32.3862C81.1475 32.7503 81.0031 33.0995 80.746 33.3573V33.3539Z" fill="black"/>
</svg>
