<svg width="88" height="89" viewBox="0 0 88 89" fill="none" xmlns="http://www.w3.org/2000/svg">
<path d="M83.8747 32.6154C83.876 32.074 83.77 31.5376 83.563 31.0373C83.3559 30.537 83.0517 30.0826 82.6681 29.7004L59.056 6.08825C58.6727 5.70369 58.2174 5.39857 57.716 5.19037C57.2146 4.98217 56.677 4.875 56.1341 4.875C55.5912 4.875 55.0536 4.98217 54.5522 5.19037C54.0508 5.39857 53.5954 5.70369 53.2122 6.08825L43.2366 16.0742L23.0035 23.6608C22.3265 23.9163 21.7282 24.3446 21.2681 24.903C20.808 25.4614 20.502 26.1306 20.3806 26.8439L12.3919 74.7798C12.3589 74.977 12.3693 75.179 12.4224 75.3717C12.4754 75.5644 12.5699 75.7433 12.6992 75.8958C12.8284 76.0483 12.9894 76.1707 13.1708 76.2547C13.3522 76.3386 13.5498 76.3819 13.7497 76.3817C13.8256 76.3811 13.9014 76.3753 13.9766 76.3645L61.9091 68.3723C62.6234 68.2538 63.2939 67.9493 63.8533 67.4895C64.4126 67.0297 64.8411 66.4308 65.0956 65.7529L72.6822 45.5198L82.651 35.5511C83.0403 35.168 83.3491 34.711 83.5593 34.2068C83.7694 33.7027 83.8767 33.1616 83.8747 32.6154ZM62.521 64.787C62.4361 65.013 62.2933 65.2126 62.1068 65.3659C61.9204 65.5191 61.6969 65.6206 61.4588 65.6601L17.7578 72.9442L37.85 52.852C39.5361 54.0503 41.6109 54.5714 43.6631 54.3122C45.7153 54.053 47.5953 53.0322 48.9304 51.4523C50.2656 49.8724 50.9585 47.8485 50.8719 45.7818C50.7853 43.7151 49.9255 41.7563 48.4628 40.2936C47.0001 38.8309 45.0413 37.9711 42.9746 37.8845C40.9079 37.7979 38.884 38.4908 37.3041 39.826C35.7242 41.1611 34.7034 43.0411 34.4442 45.0933C34.185 47.1455 34.7061 49.2203 35.9044 50.9064L15.8122 71.002L23.0963 27.2976C23.1358 27.0595 23.2373 26.836 23.3905 26.6496C23.5438 26.4631 23.7434 26.3203 23.9694 26.2354L43.656 18.8517L69.9013 45.1004L62.521 64.787ZM37.1247 46.1317C37.1247 45.0439 37.4473 43.9805 38.0516 43.0761C38.656 42.1716 39.515 41.4666 40.5199 41.0504C41.5249 40.6341 42.6308 40.5252 43.6977 40.7374C44.7646 40.9496 45.7446 41.4734 46.5138 42.2426C47.283 43.0118 47.8068 43.9918 48.019 45.0587C48.2312 46.1256 48.1223 47.2315 47.706 48.2365C47.2898 49.2414 46.5848 50.1004 45.6803 50.7048C44.7759 51.3091 43.7125 51.6317 42.6247 51.6317C41.166 51.6317 39.7671 51.0522 38.7356 50.0208C37.7042 48.9893 37.1247 47.5904 37.1247 46.1317ZM80.7225 33.5883L71.4997 42.8111L45.9453 17.2567L55.1647 8.03732C55.2924 7.90947 55.4441 7.80805 55.611 7.73886C55.7779 7.66966 55.9568 7.63405 56.1375 7.63405C56.3182 7.63405 56.4971 7.66966 56.6641 7.73886C56.831 7.80805 56.9826 7.90947 57.1103 8.03732L80.7225 31.6495C80.9797 31.9073 81.1241 32.2565 81.1241 32.6206C81.1241 32.9847 80.9797 33.3339 80.7225 33.5917V33.5883Z" fill="white"/>
</svg>
