<svg width="225" height="109" viewBox="0 0 225 109" fill="none" xmlns="http://www.w3.org/2000/svg">
<rect x="0.925781" y="0.429688" width="224.062" height="107.64" rx="10" fill="white"/>
<path d="M148.493 76.7812C148.421 76.7094 148.277 76.7094 148.205 76.6377C148.134 76.5659 148.062 76.4941 148.134 76.4224C148.277 75.7048 148.421 75.059 148.565 74.3414C148.709 73.552 148.852 72.8344 148.709 72.0451C148.205 69.39 145.762 67.7395 143.175 68.1701C141.45 68.4571 140.156 69.4617 139.581 71.1839C139.222 72.1886 139.078 73.265 138.862 74.3414C138.791 74.5566 138.719 74.7002 138.503 74.7002C137.856 74.7002 137.641 74.9154 137.497 75.4177C137.138 77.2835 136.778 79.0775 136.347 80.9432C136.203 81.7326 136.275 81.9478 136.778 82.2349C139.222 83.7418 141.809 84.5312 144.684 84.5312C145.546 84.4594 146.409 84.3159 147.271 84.2441C147.63 84.1724 147.846 83.9571 147.846 83.6701C148.277 81.7326 148.637 79.7951 149.068 77.8576C149.068 77.2117 148.996 77.0682 148.493 76.7812ZM143.462 79.3645C143.246 79.508 143.246 79.6515 143.175 79.8668C143.031 80.4409 142.959 80.9432 142.887 81.5173C142.815 81.9478 142.528 82.1631 142.097 82.0914C141.737 82.0196 141.593 81.6608 141.665 81.2303C141.809 80.6562 141.953 80.0103 142.025 79.4363C142.025 79.2927 141.953 79.1492 141.881 79.0057C141.378 78.2881 141.665 77.3553 142.528 77.0682C142.671 76.9965 142.743 76.9965 142.887 76.9965C143.462 76.9965 143.965 77.3552 144.109 77.9293C144.253 78.5034 144.037 79.0775 143.462 79.3645ZM146.84 74.1978C146.768 74.7002 146.624 75.2025 146.552 75.7048C143.606 74.7002 143.606 74.7001 140.515 74.4849C140.587 73.9826 140.731 73.4802 140.803 72.9779C140.875 72.6191 140.947 72.2603 141.018 71.9015C141.45 70.6816 142.312 69.964 143.606 69.7488C145.259 69.4617 146.84 70.8251 147.056 72.3321C147.127 73.0497 146.984 73.6238 146.84 74.1978ZM109.755 89.8414C111.48 89.8414 113.277 89.7696 115.002 89.5543C115.936 89.4108 116.87 89.3391 117.876 89.1955C119.386 88.9085 120.967 88.6215 122.476 88.1909C126.573 87.1863 130.454 85.6793 134.119 83.6701C134.55 83.4548 135.053 83.1678 135.485 82.9525C135.269 82.5937 135.053 82.2349 134.91 81.9478C134.838 81.9478 134.766 82.0196 134.694 82.0914C132.394 83.383 129.951 84.5312 127.507 85.3923C125.279 86.2534 122.979 86.8992 120.679 87.4016C119.242 87.6886 117.733 87.9756 116.295 88.1909C115.433 88.3344 114.642 88.4062 113.78 88.4779C112.702 88.5497 111.624 88.6932 110.618 88.6932C109.108 88.6932 107.599 88.6215 106.09 88.6215C105.371 88.6215 104.652 88.5497 103.862 88.4779C102.999 88.4062 102.137 88.2627 101.275 88.1191C100.197 87.9039 99.1185 87.7604 98.0405 87.5451C97.3218 87.4016 96.6031 87.1863 95.8844 87.0428C95.5251 86.971 95.1657 87.1145 95.0938 87.4733C95.022 87.8321 95.2376 88.1191 95.5969 88.2627C97.6812 88.8367 99.8372 89.2673 101.993 89.5543C103.359 89.7696 104.796 89.9131 106.162 89.9849C107.312 89.9131 108.533 89.8414 109.755 89.8414ZM135.7 85.2488C136.203 84.8182 136.634 84.3877 137.138 83.9571C136.706 83.7418 136.347 83.5266 135.988 83.3113C134.478 84.6747 132.825 85.9664 131.172 87.1145C126.429 90.4155 121.326 92.8553 115.792 94.3622C113.205 95.0798 110.546 95.6539 107.887 95.9409C106.809 96.0844 105.731 96.1562 104.724 96.228C104.365 96.228 104.078 96.515 104.078 96.802C104.078 97.0891 104.365 97.4479 104.724 97.3761C105.515 97.3044 106.377 97.2326 107.168 97.1608C108.174 97.0891 109.18 96.9455 110.115 96.802C111.768 96.515 113.349 96.1562 115.002 95.7974C119.242 94.721 123.267 93.1423 127.076 91.0613C130.094 89.4108 132.969 87.4733 135.7 85.2488ZM146.984 59.4154C146.84 60.4918 146.768 61.64 146.552 62.7163C146.409 63.8645 146.121 64.9409 145.977 66.089C145.906 66.3761 145.834 66.7349 145.762 66.9501C146.193 67.0937 146.552 67.3089 146.912 67.4525L146.984 67.3807C147.343 65.6585 147.702 63.9363 147.918 62.1423C147.99 61.2812 148.134 60.3483 148.205 59.4872C148.277 58.6261 148.349 57.765 148.349 56.9756C148.349 55.1816 148.349 53.3876 148.277 51.6654C148.205 50.5173 148.062 49.4409 147.918 48.2927C147.774 47.3598 147.702 46.427 147.487 45.4941C147.127 43.7719 146.696 42.0497 146.265 40.3274C146.193 39.8969 145.834 39.6816 145.546 39.8251C145.187 39.9686 145.043 40.2557 145.115 40.6862C145.69 42.839 146.265 44.92 146.552 47.1446C146.696 48.3645 146.912 49.5844 146.984 50.8043C147.056 51.6654 147.127 52.4548 147.127 53.3159C147.127 54.6075 147.127 55.8992 147.127 57.1909C147.056 57.9085 147.056 58.6261 146.984 59.4154ZM148.709 68.9594C148.709 68.8876 148.78 68.8876 148.78 68.8159C150.577 65.2997 152.014 61.64 152.949 57.765C153.236 56.4733 153.524 55.1816 153.811 53.8899C153.955 53.1006 154.099 52.3112 154.171 51.5219C154.242 50.8043 154.386 50.0867 154.458 49.3691C154.53 48.795 154.53 48.221 154.602 47.6469C154.674 46.714 154.674 45.7811 154.674 44.8483C154.674 44.7048 154.53 44.4895 154.386 44.346C154.242 44.2024 153.955 44.2024 153.739 44.2742C153.452 44.4177 153.38 44.633 153.38 44.92C153.38 46.4987 153.308 48.0774 153.164 49.5844C153.093 50.5173 153.021 51.4501 152.805 52.383C152.589 53.6747 152.374 54.8946 152.086 56.1145C151.583 58.5543 150.793 60.9941 149.858 63.2904C149.212 64.8691 148.493 66.3761 147.846 67.883C147.846 67.9548 147.774 68.0983 147.846 68.0983C148.134 68.3853 148.421 68.6724 148.709 68.9594ZM137.641 84.9617C136.491 86.684 135.197 88.2627 133.76 89.7696C132.682 90.9178 131.604 92.0659 130.454 93.0705C129.376 94.0752 128.298 95.008 127.148 95.8692C125.71 96.9455 124.201 97.9502 122.764 98.9548C122.548 99.0983 122.404 99.3136 122.476 99.6006C122.548 100.103 123.051 100.246 123.482 99.9594C125.495 98.7395 127.363 97.3761 129.16 95.8692C130.454 94.7928 131.675 93.6446 132.825 92.4965C134.119 91.133 135.341 89.7696 136.563 88.3344C137.497 87.258 138.287 86.1099 139.15 84.89C138.862 84.8182 138.719 84.7465 138.503 84.6029C138 84.3877 138 84.3877 137.641 84.9617ZM158.411 54.9663C158.052 54.8946 157.764 55.0381 157.62 55.3969C156.686 57.8367 155.608 60.133 154.314 62.4293C152.877 65.0126 151.224 67.4525 149.355 69.7488C149.283 69.8205 149.283 69.964 149.355 70.0358C149.499 70.3946 149.643 70.6816 149.787 71.0404C149.858 71.0404 149.858 70.9687 149.858 70.9687C150.577 70.0358 151.368 69.1029 152.086 68.1701C154.458 64.8691 156.47 61.3529 158.052 57.6214C158.267 57.0474 158.483 56.4733 158.698 55.8992C158.914 55.3969 158.698 55.0381 158.411 54.9663ZM142.097 28.9895C142.312 30.1376 143.606 30.7117 144.54 30.1376C145.115 29.7788 145.331 29.2047 145.331 28.5589C145.403 27.6978 145.331 26.8367 145.187 26.0473C144.971 25.0427 144.684 24.1098 144.181 23.2487C143.606 23.9663 142.671 25.832 142.312 26.8367C142.025 27.5543 141.881 28.2719 142.097 28.9895ZM135.485 27.4108C135.988 27.9848 136.491 28.5589 137.066 29.0612C138 29.8506 139.006 30.2811 140.228 30.1376C140.803 30.0658 141.45 29.6353 141.593 29.133C141.809 28.3436 141.378 27.5543 140.515 27.2672C139.797 27.052 139.078 26.9802 138.359 26.9802C137.353 26.9802 136.347 27.1237 135.269 27.1955C135.413 27.2672 135.413 27.339 135.485 27.4108ZM132.897 19.4455C131.388 19.0149 129.879 19.0149 128.298 19.0149C128.369 19.1584 128.369 19.2302 128.441 19.3737C128.873 20.0913 129.376 20.8089 130.022 21.383C130.885 22.1723 131.819 22.6029 132.969 22.5311C133.544 22.4594 133.975 22.2441 134.263 21.67C134.55 21.1677 134.406 20.6654 134.119 20.1631C133.832 19.7325 133.4 19.589 132.897 19.4455ZM137.281 23.5358C136.634 23.2487 135.988 23.1052 135.341 23.0334C134.191 22.8899 133.113 22.9617 131.963 23.0334C131.963 23.1052 132.035 23.177 132.035 23.2487C132.466 23.9663 132.969 24.6121 133.616 25.1862C134.478 25.9756 135.485 26.4779 136.634 26.3344C137.138 26.2626 137.569 26.1191 137.856 25.6885C138.431 24.8992 138.144 23.8945 137.281 23.5358ZM154.099 34.0844C154.171 34.6584 154.53 35.089 155.033 35.3043C155.608 35.5196 156.111 35.376 156.47 34.9455C156.758 34.6584 156.973 34.2279 157.117 33.8691C157.692 32.5774 157.836 31.214 157.764 29.8506C157.764 29.6353 157.692 29.42 157.692 29.133C156.542 30.0658 155.464 30.927 154.674 32.1469C154.242 32.7209 153.955 33.295 154.099 34.0844ZM136.922 22.3876C137.784 22.1723 138.144 21.5265 138.072 20.8089C138 19.6607 137.712 18.5844 137.138 17.6515C136.85 17.1492 136.491 16.6469 136.131 16.1445C136.131 16.1445 136.059 16.1445 136.059 16.2163C135.988 16.2881 135.988 16.4316 135.916 16.5033C135.556 17.508 135.197 18.5844 135.053 19.6607C134.981 20.2348 134.981 20.8089 135.197 21.383C135.485 22.0288 136.275 22.5311 136.922 22.3876ZM131.819 18.3691C132.682 19.1584 133.975 18.7996 134.263 17.6515C134.406 17.2209 134.263 16.7186 134.047 16.3598C133.544 15.2117 132.753 14.2788 131.819 13.4894C131.532 13.2742 131.244 13.0589 130.885 12.7719C130.813 14.207 130.741 15.4987 131.029 16.7904C131.244 17.3644 131.388 17.9385 131.819 18.3691ZM152.805 31.1422C151.583 30.4246 150.146 30.0658 148.78 29.7788C148.78 29.8506 148.78 29.9223 148.78 29.9941C149.14 31.0705 149.571 32.1469 150.362 32.9362C150.936 33.5821 151.655 33.9409 152.589 33.9409C153.452 33.9409 154.099 33.0797 153.811 32.2186C153.667 31.7163 153.308 31.4293 152.805 31.1422ZM149.427 22.5311C148.205 21.4547 146.768 20.9524 145.259 20.4501C145.259 20.5219 145.259 20.5936 145.259 20.6654C145.474 21.7418 145.762 22.7464 146.337 23.6075C146.768 24.2533 147.343 24.7557 148.134 24.9709C149.068 25.258 149.858 24.8274 150.002 23.9663C150.146 23.3205 149.858 22.8899 149.427 22.5311ZM151.08 26.7649C150.146 26.1191 149.068 25.7603 147.99 25.4015C147.702 25.3297 147.415 25.258 147.127 25.1862C147.343 26.3344 147.702 27.4108 148.421 28.2719C148.996 29.0612 149.787 29.5635 150.793 29.5635C151.655 29.5635 152.23 28.7742 152.014 27.9131C151.871 27.339 151.511 27.052 151.08 26.7649ZM140.587 25.9038C141.234 25.7603 141.593 25.1862 141.593 24.4686C141.593 23.464 141.378 22.5311 141.018 21.5982C140.731 20.9524 140.444 20.3783 140.012 19.8043C140.012 19.876 139.94 19.876 139.94 19.9478C139.437 21.0959 138.934 22.3158 138.791 23.5358C138.719 24.1098 138.719 24.6839 139.006 25.1862C139.294 25.7603 140.012 26.1191 140.587 25.9038ZM149.715 21.7418C150.505 21.8135 151.152 21.1677 151.152 20.3066C151.152 19.2302 150.865 18.1538 150.362 17.2209C150.146 16.7186 149.858 16.2881 149.571 15.8575C149.499 15.8575 149.499 15.8575 149.427 15.8575C149.14 16.7186 148.78 17.508 148.565 18.3691C148.349 19.0149 148.277 19.7325 148.421 20.4501C148.493 21.1677 149.068 21.7418 149.715 21.7418ZM152.302 26.0473C152.877 25.832 153.164 25.4015 153.308 24.8992C153.596 23.8945 153.596 22.8182 153.38 21.8135C153.308 21.3112 153.164 20.8807 153.021 20.3066C152.949 20.3783 152.877 20.3783 152.877 20.3783C152.23 21.0959 151.655 21.8853 151.152 22.7464C150.793 23.3922 150.505 24.0381 150.577 24.7557C150.577 25.6885 151.511 26.3344 152.302 26.0473ZM143.175 37.9594C143.678 38.2464 144.253 38.3182 144.828 38.2464C145.69 38.1029 146.193 37.2418 145.834 36.5242C145.618 36.0219 145.115 35.8066 144.612 35.6631C143.821 35.376 143.031 35.3043 142.24 35.2325C141.737 35.2325 141.306 35.2325 140.731 35.2325C141.306 36.3807 142.025 37.3853 143.175 37.9594ZM124.92 15.5705C125.279 16.2163 125.782 16.6469 126.285 17.0774C127.148 17.795 128.01 18.2256 129.16 18.082C129.807 18.0103 130.31 17.5797 130.382 17.0057C130.454 16.4316 130.166 15.8575 129.591 15.6422C129.16 15.4987 128.729 15.4269 128.298 15.3552C127.22 15.2834 126.141 15.4269 124.92 15.5705ZM152.589 29.133C152.589 29.9941 153.596 30.6399 154.314 30.3529C154.817 30.1376 155.033 29.7788 155.177 29.2765C155.32 28.7742 155.392 28.2719 155.464 27.7695C155.608 26.7649 155.464 25.832 155.177 24.8274C154.242 25.6885 153.524 26.6214 152.949 27.6978C152.733 28.1283 152.589 28.5589 152.589 29.133ZM126.932 14.207C127.507 14.9964 128.729 15.0681 129.16 14.207C129.447 13.7047 129.376 13.2742 129.088 12.8436C128.441 11.7672 127.579 10.9061 126.501 10.2603C126.357 10.1885 126.141 10.045 125.926 9.97324C125.926 10.045 125.926 10.1168 125.926 10.1168C125.998 10.9061 126.07 11.6237 126.213 12.4131C126.357 13.0589 126.573 13.633 126.932 14.207ZM145.834 30.0658C145.762 30.0658 145.762 30.0658 145.69 30.0658C144.971 30.8552 144.396 31.7163 143.965 32.6492C143.75 33.1515 143.534 33.6538 143.606 34.2279C143.678 34.802 144.109 35.3043 144.612 35.376C145.259 35.4478 145.762 35.1608 145.977 34.5867C146.121 34.2279 146.193 33.7973 146.193 33.3668C146.193 32.8645 146.193 32.2904 146.121 31.7881C146.193 31.214 145.977 30.6399 145.834 30.0658ZM154.53 40.5427C154.027 39.9686 153.38 39.6098 152.733 39.3228C152.158 39.0358 151.583 38.8205 150.936 38.5335C150.936 38.677 150.936 38.7487 150.936 38.8205C151.08 39.6816 151.296 40.471 151.727 41.1885C152.086 41.7626 152.589 42.2649 153.308 42.4802C153.883 42.6955 154.458 42.552 154.746 42.0497C155.033 41.5473 154.961 41.045 154.53 40.5427ZM146.984 17.5797C145.906 16.9339 144.684 16.6469 143.462 16.3598C143.462 16.4316 143.462 16.4316 143.462 16.4316C143.462 16.5033 143.462 16.5033 143.462 16.5751C143.75 17.1492 143.965 17.795 144.253 18.3691C144.756 19.1584 145.403 19.7325 146.409 19.9478C146.912 20.0195 147.415 19.8043 147.63 19.4455C147.846 19.0867 147.846 18.5126 147.559 18.1538C147.415 17.9385 147.199 17.7232 146.984 17.5797ZM155.824 39.6816C156.255 39.1793 156.542 38.5335 156.686 37.8876C156.902 37.17 157.045 36.4524 156.973 35.5913C155.895 36.2372 154.817 36.883 154.099 37.9594C153.811 38.3182 153.739 38.7487 153.811 39.1793C153.955 39.6816 154.242 39.9686 154.746 40.0404C155.177 40.1839 155.536 39.9686 155.824 39.6816ZM147.056 16.7904C147.63 16.6469 148.062 16.0728 147.918 15.3552C147.846 14.7811 147.63 14.2788 147.415 13.7047C147.127 12.9871 146.696 12.3413 146.049 11.7672C145.977 11.9107 145.977 11.9825 145.906 12.0543C145.762 12.5566 145.618 13.1306 145.474 13.7047C145.331 14.3506 145.259 15.0681 145.474 15.7857C145.762 16.5033 146.337 16.8621 147.056 16.7904ZM161.429 48.1492C160.783 48.8668 161.07 49.9432 161.932 50.0867C162.292 50.1585 162.651 50.0149 162.939 49.7997C163.873 49.1538 164.52 48.2927 165.023 47.2881C165.095 47.1446 165.167 46.9293 165.238 46.714C164.232 46.8575 163.37 47.0728 162.507 47.4316C162.076 47.5751 161.717 47.8622 161.429 48.1492ZM121.542 12.4848V12.5566C121.757 12.7719 121.901 13.0589 122.117 13.2742C122.907 14.1353 123.77 14.7811 124.992 14.6376C125.567 14.5658 125.998 14.207 126.07 13.7047C126.141 13.3459 125.926 12.7719 125.351 12.5566C124.776 12.3413 124.201 12.3413 123.626 12.3413C122.907 12.3413 122.261 12.4131 121.542 12.4848ZM139.365 31.214C139.222 31.214 139.006 31.214 138.791 31.2858C139.15 32.0034 140.012 32.9362 140.803 33.295C141.306 33.5821 141.809 33.6538 142.384 33.5821C143.031 33.4385 143.39 32.8645 143.246 32.2186C143.103 31.7881 142.743 31.5728 142.312 31.4293C141.378 31.0705 140.372 31.1422 139.365 31.214ZM160.495 40.5427C160.711 40.8298 161.07 40.9733 161.429 40.9015C162.076 40.8298 162.507 40.1839 162.292 39.5381C161.932 38.3182 161.07 37.4571 160.208 36.4524C159.92 37.2418 159.776 38.0311 159.776 38.8205C159.848 39.5381 160.064 40.1122 160.495 40.5427ZM159.776 47.7904C160.136 48.0774 160.495 48.221 160.926 48.0774C161.501 47.8622 161.789 47.2881 161.501 46.6423C160.998 45.4941 160.064 44.7048 159.13 43.9154C158.986 44.633 158.842 45.3506 158.986 45.9964C159.058 46.714 159.273 47.3598 159.776 47.7904ZM160.926 44.633C161.717 44.7048 162.22 43.9872 162.004 43.2696C161.573 42.0497 160.711 41.1885 159.848 40.3274C159.848 40.3992 159.776 40.3992 159.776 40.471C159.561 41.1168 159.489 41.7626 159.489 42.4802C159.489 42.9825 159.633 43.4848 159.92 43.9154C160.136 44.2742 160.423 44.5612 160.926 44.633ZM122.979 11.5519C123.626 12.0543 124.56 11.839 124.776 11.0496C124.92 10.5473 124.704 10.1168 124.273 9.82972C123.41 9.04037 122.404 8.60981 121.111 8.39453C121.254 8.82509 121.398 9.18388 121.614 9.61444C121.973 10.332 122.332 10.9779 122.979 11.5519ZM162.867 36.6677C162.507 37.0983 162.22 37.4571 162.148 38.0311C162.076 38.7487 162.723 39.3946 163.442 39.1793C163.873 39.0358 164.089 38.677 164.304 38.3182C164.592 37.6723 164.735 36.9547 164.735 36.3089C164.735 35.9501 164.735 35.5913 164.664 35.089C164.017 35.5196 163.37 36.0219 162.867 36.6677ZM142.097 14.3506C142.456 14.9964 143.031 15.4987 143.821 15.5705C144.253 15.6422 144.612 15.4987 144.828 15.2117C145.115 14.8529 145.115 14.4223 144.828 14.1353C144.612 13.8482 144.253 13.5612 143.893 13.4177C143.103 12.9871 142.24 12.7719 141.306 12.6283C141.306 12.7001 141.306 12.7719 141.306 12.8436C141.665 13.3459 141.809 13.8482 142.097 14.3506ZM162.292 41.045C161.789 41.6909 162.004 42.6237 162.867 42.7673C163.298 42.839 163.657 42.6237 163.945 42.3367C164.448 41.8344 164.807 41.1885 165.023 40.5427C165.167 40.1122 165.238 39.7534 165.382 39.3228L165.31 39.251C164.879 39.3946 164.52 39.5381 164.089 39.7534C163.442 40.1122 162.795 40.3992 162.292 41.045ZM150.505 34.4432C150.649 34.802 150.721 35.089 150.793 35.4478C150.936 35.7348 151.008 36.0219 151.224 36.3089C151.583 36.8112 151.943 37.3135 152.589 37.5288C152.877 37.6723 153.236 37.6723 153.524 37.6006C154.171 37.3853 154.386 36.4524 153.811 35.9501C153.164 35.376 152.374 35.089 151.583 34.802C151.224 34.6584 150.865 34.5867 150.505 34.4432ZM162.076 44.5612C161.789 44.92 161.717 45.4941 162.004 45.8529C162.364 46.3552 163.011 46.427 163.514 45.9247C164.089 45.3506 164.52 44.7048 164.879 43.9154C165.023 43.6284 165.095 43.3413 165.167 42.9825L165.095 42.9108C164.664 43.0543 164.16 43.2696 163.729 43.4131C163.082 43.7001 162.507 44.0589 162.076 44.5612ZM143.031 12.3413C143.318 12.7001 143.821 12.9154 144.253 12.7001C144.828 12.4848 145.043 11.9107 144.756 11.2649C144.468 10.6908 144.109 10.1168 143.606 9.6862C143.246 9.39916 142.887 9.11212 142.528 8.89685C142.456 8.89685 142.456 8.96861 142.384 8.96861C142.456 9.61444 142.456 10.1885 142.528 10.8343C142.6 11.3367 142.743 11.9107 143.031 12.3413ZM157.477 50.4455C157.405 50.589 157.405 50.6608 157.333 50.7325C157.261 51.0913 157.117 51.5219 157.045 51.8807C156.902 52.5983 157.045 53.3159 157.548 53.8899C157.836 54.2487 158.339 54.3205 158.698 54.177C159.058 53.9617 159.273 53.5312 159.13 53.1006C158.842 52.0242 158.195 51.2349 157.477 50.4455ZM162.076 36.8112C162.579 36.5959 162.795 36.0219 162.507 35.4478C162.076 34.5149 161.286 33.8691 160.495 33.2233C160.423 33.295 160.423 33.3668 160.423 33.4385C160.351 33.9409 160.279 34.4432 160.351 34.8737C160.351 35.4478 160.567 35.9501 160.926 36.3807C161.214 36.8112 161.717 36.9547 162.076 36.8112ZM162.076 34.0126C162.076 34.4432 162.436 34.802 162.867 34.802C163.298 34.8737 163.657 34.5867 163.801 34.1561C164.16 33.1515 164.16 32.2186 163.873 31.1422C163.226 31.7881 162.651 32.3621 162.292 33.1515C162.148 33.3668 162.076 33.7256 162.076 34.0126ZM159.489 51.3784C159.058 51.6654 158.914 52.1677 159.201 52.5983C159.417 53.0288 159.92 53.1724 160.351 52.9571C161.286 52.4548 162.004 51.7372 162.507 50.7325C161.932 50.8043 161.429 50.8043 160.998 50.8761C160.423 50.9478 159.92 51.0196 159.489 51.3784ZM161.214 32.9362C161.789 33.295 162.364 32.7927 162.292 32.2904C162.292 32.0751 162.22 31.9316 162.148 31.7881C161.789 31.0705 161.142 30.5682 160.495 29.9941C160.279 30.8552 160.208 31.6446 160.711 32.4339C160.783 32.6492 160.998 32.7927 161.214 32.9362ZM160.136 50.4455C160.351 50.1585 160.351 49.7997 160.136 49.5126C159.776 48.795 159.201 48.221 158.555 47.5751C158.483 47.9339 158.411 48.2927 158.339 48.5798C158.267 49.2256 158.411 49.8714 158.842 50.3737C159.273 50.8043 159.848 50.8761 160.136 50.4455ZM162.292 31.1422C162.723 31.214 163.082 30.9987 163.154 30.5682C163.226 30.2811 163.226 29.9223 163.154 29.5635C163.082 28.9895 162.867 28.4871 162.507 27.9131C162.076 28.7024 161.645 29.4918 161.717 30.3529C161.717 30.7117 162.004 31.0705 162.292 31.1422Z" fill="#E9B412"/>
<path d="M124.851 61.7111C123.557 61.7111 122.263 61.7111 120.898 61.7111C120.826 61.7111 120.754 61.7111 120.682 61.7111V71.3269C120.682 71.3269 120.682 71.3269 120.61 71.3269C120.538 71.2551 120.538 71.1833 120.467 71.1833C119.604 69.6764 118.742 68.1694 117.879 66.7343C116.945 65.1556 116.011 63.5051 115.148 61.9264C115.076 61.7829 115.004 61.7111 114.861 61.7111C113.855 61.7111 112.776 61.7111 111.77 61.7111C111.555 61.7111 111.483 61.7829 111.483 61.9981C111.483 68.2412 111.483 74.4843 111.483 80.7991C111.483 81.0144 111.555 81.0861 111.77 81.0861C113.064 81.0861 114.429 81.0861 115.723 81.0861C115.795 81.0861 115.867 81.0861 115.939 81.0861V71.3986C117.017 73.1926 118.023 74.9866 119.029 76.7806C119.82 78.144 120.61 79.4357 121.329 80.7991C121.401 80.9426 121.545 81.0144 121.688 81.0144C122.694 81.0144 123.701 81.0144 124.707 81.0144C124.779 81.0144 124.851 81.0144 124.994 81.0144V80.8708C124.994 74.556 124.994 68.313 124.994 61.9981C125.066 61.7111 124.994 61.7111 124.851 61.7111ZM115.939 47.5028C116.011 47.6463 116.082 47.718 116.154 47.7898C117.089 49.4403 118.023 51.019 118.957 52.6694C119.748 54.0329 120.538 55.3963 121.329 56.7597C121.401 56.9032 121.545 56.975 121.688 56.975C122.694 56.975 123.773 56.975 124.779 56.975C124.851 56.975 124.922 56.975 124.994 56.975V37.8153H120.61V47.431C120.61 47.431 120.61 47.431 120.538 47.431C120.467 47.3592 120.467 47.2875 120.395 47.2157C120.179 46.7852 119.892 46.3546 119.676 45.9241C118.814 44.4171 117.951 42.9102 117.089 41.4032C116.442 40.2551 115.795 39.1069 115.076 37.9588C115.004 37.8153 114.933 37.7435 114.717 37.7435C113.711 37.7435 112.633 37.7435 111.627 37.7435C111.555 37.7435 111.483 37.7435 111.411 37.7435V56.975H115.795V47.5028H115.939ZM73.0326 45.9958C72.4577 45.4217 71.739 44.9194 71.0203 44.6324C70.086 44.2018 69.0798 43.843 68.1455 43.4125C67.6424 43.1972 67.1393 42.9102 66.78 42.5514C65.9894 41.9055 65.9176 40.9727 66.1332 40.0398C66.2769 39.4657 66.6363 39.1069 67.1393 38.8916C67.6424 38.6764 68.1455 38.6764 68.6486 38.7481C69.2236 38.8199 69.7266 39.0352 70.1579 39.4657C70.5172 39.8245 70.7328 40.1833 71.0922 40.6139C72.1702 39.7528 73.3201 38.8916 74.47 38.0305C74.3982 37.9588 74.3982 37.887 74.3263 37.887C73.5357 36.5236 72.3139 35.6625 70.8766 35.1602C69.6548 34.7296 68.3611 34.5861 66.9956 34.7296C66.1332 34.8014 65.3426 34.9449 64.552 35.2319C63.6896 35.5907 62.899 36.093 62.3241 36.8824C61.4616 37.9588 61.1023 39.2504 61.1023 40.6856C61.1023 41.3315 61.1742 41.9773 61.246 42.6231C61.4616 44.0583 62.1085 45.2782 63.2584 46.2111C64.1208 46.9287 65.0551 47.431 66.1332 47.8616C66.9956 48.2204 67.9299 48.5074 68.7205 49.0815C69.0798 49.3685 69.4392 49.6555 69.5829 50.1579C69.7266 50.5884 69.7266 51.019 69.7266 51.4495C69.6548 52.0236 69.3673 52.5259 68.8642 52.813C68.3611 53.1 67.7862 53.1717 67.1393 53.1717C66.205 53.1 65.4145 52.7412 64.6958 52.0236C64.4802 51.8083 64.2646 51.5213 64.0489 51.2342C62.899 52.0954 61.821 52.9565 60.6711 53.7458C60.6711 53.8176 60.743 53.8893 60.743 53.8893C61.246 54.3917 61.7491 54.9657 62.3241 55.468C63.5459 56.4727 64.9833 56.9032 66.4925 57.0468C67.1393 57.1185 67.7143 57.1185 68.3611 57.1185C69.2954 57.1185 70.1579 56.975 71.0203 56.6162C72.3139 56.1139 73.3201 55.2528 73.9669 53.9611C74.47 52.9565 74.6856 51.8801 74.6856 50.8037C74.6856 50.0861 74.6138 49.2967 74.47 48.5791C74.2544 47.5745 73.7513 46.7134 73.0326 45.9958ZM79.429 57.0468C79.5728 57.0468 79.6446 56.975 79.6446 56.8315C79.8602 55.8986 80.0758 54.894 80.2915 53.9611C80.2915 53.8893 80.4352 53.8176 80.5071 53.8176C81.8726 53.8176 83.2381 53.8176 84.6755 53.8176C84.7474 53.8176 84.8192 53.8893 84.8911 53.9611C85.1067 54.894 85.3223 55.8986 85.5379 56.8315C85.6098 57.0467 85.6817 57.0468 85.8254 57.0468C87.1191 57.0468 88.4846 57.0468 89.7782 57.0468H90.4969C90.2813 56.4009 90.1376 55.8268 89.9938 55.181C89.4908 53.5305 89.0595 51.8801 88.5564 50.2296C87.9096 48.0051 87.3347 45.8523 86.6878 43.6278C86.1129 41.6903 85.6098 39.8245 85.0348 37.887C84.963 37.7435 84.8911 37.6717 84.7474 37.6717C84.1005 37.6717 83.3818 37.6717 82.735 37.6717H80.3633C78.4947 44.1301 76.698 50.5167 74.8294 56.975C74.9012 56.975 74.9731 56.975 75.045 56.975C76.4824 57.0468 77.9198 57.0468 79.429 57.0468ZM82.5913 44.4889C82.9506 46.2111 83.31 48.0051 83.6693 49.7991H81.4414C81.8007 48.0768 82.1601 46.2829 82.5913 44.4889ZM139.799 47.0722C139.799 47.0004 139.799 46.9287 139.799 46.8569H133.331V50.7319H135.487C135.415 51.3778 135.343 52.0236 135.056 52.5977C134.697 53.387 133.619 53.6023 132.9 53.2435C132.397 52.9565 132.109 52.5259 131.966 51.9518C131.678 51.019 131.606 50.0861 131.606 49.1532C131.606 47.7898 131.606 46.4981 131.678 45.1347C131.678 44.4171 131.75 43.6278 131.966 42.9819C132.181 42.1926 132.541 41.5467 133.547 41.4032C134.122 41.3315 134.553 41.5467 134.912 41.9773C135.272 42.4079 135.343 42.9819 135.415 43.4842C135.415 43.6995 135.487 43.7713 135.703 43.7713C136.206 43.7713 136.637 43.7713 137.14 43.7713H139.943C139.943 43.6995 139.943 43.6278 139.943 43.556C139.728 42.4796 139.512 41.4032 138.937 40.4703C138.218 39.2504 137.284 38.3176 135.918 37.887C134.697 37.4565 133.475 37.4565 132.253 37.6717C130.313 38.0305 128.947 39.1787 128.085 40.9727C127.366 42.4078 127.079 43.9866 127.079 45.637C127.079 46.9287 127.079 48.2204 127.079 49.512C127.079 50.0861 127.15 50.6602 127.222 51.306C127.366 52.3106 127.653 53.2435 128.085 54.1764C128.803 55.6116 129.953 56.6162 131.463 57.1185C132.325 57.4055 133.187 57.5491 134.05 57.4773C134.625 57.4055 135.128 57.3338 135.631 57.1903C137.14 56.7597 138.146 55.7551 138.865 54.4634C139.584 53.1 139.799 51.593 139.871 50.0861C139.799 48.9379 139.799 48.0051 139.799 47.0722ZM73.392 70.8245H66.9237V74.269H69.0798C69.0798 74.556 69.0079 74.7713 69.0079 74.9866C68.9361 75.4889 68.8642 75.9195 68.7205 76.4218C68.3611 77.5699 67.0675 77.6417 66.3488 77.2111C65.8457 76.9241 65.6301 76.4218 65.4863 75.8477C65.1989 74.9148 65.1989 73.9819 65.1989 73.0491C65.1989 71.3986 65.127 69.8199 65.2707 68.1694C65.3426 67.5236 65.4863 66.806 65.7738 66.2319C66.2769 65.2991 67.6424 65.1556 68.2893 65.8731C68.6486 66.3037 68.7923 66.8778 68.8642 67.4519C68.8642 67.7389 68.9361 67.7389 69.2236 67.7389C70.5172 67.7389 71.8109 67.7389 73.1045 67.7389H73.392C73.392 67.5954 73.3201 67.4519 73.3201 67.3801C73.1764 66.3037 72.8889 65.2991 72.3139 64.3662C71.739 63.2898 70.8766 62.5005 69.7266 61.9981C68.5767 61.4958 67.3549 61.4241 66.1332 61.5676C65.3426 61.7111 64.552 61.9264 63.8333 62.3569C62.6116 63.1463 61.821 64.2227 61.3179 65.5861C60.743 67.0931 60.5992 68.7435 60.5273 70.3222C60.5273 71.2551 60.5992 72.188 60.5992 73.1926C60.5992 74.0537 60.6711 74.9148 60.8867 75.7759C61.1742 77.0676 61.6773 78.2875 62.6116 79.2921C63.6896 80.5121 65.0551 81.0861 66.6363 81.2296C67.2831 81.3014 68.0018 81.2296 68.6486 81.1579C70.3016 80.8708 71.5234 80.0097 72.3139 78.5746C73.1764 77.0676 73.4639 75.4889 73.5357 73.7667C73.6076 72.9056 73.5357 71.9727 73.5357 71.1116V70.8245H73.392ZM90.6407 45.8523C91.1438 47.5028 91.575 49.1532 92.0781 50.8755C92.653 52.8847 93.1561 54.8222 93.7311 56.8315C93.8029 56.975 93.8029 57.0468 93.9467 57.0468C95.2403 57.0468 96.534 57.0468 97.8276 57.0468C97.9714 57.0468 98.0432 57.0467 98.0432 56.8315C98.2588 56.0421 98.4744 55.3245 98.69 54.5352C99.1931 52.8847 99.6244 51.1625 100.127 49.512C100.702 47.5028 101.205 45.5653 101.78 43.556C102.284 41.6903 102.858 39.8245 103.362 37.9588C103.362 37.887 103.362 37.887 103.362 37.8153H98.9775C98.4744 37.8153 98.4744 37.8153 98.4026 38.3176C97.9714 40.2551 97.5401 42.1208 97.1089 44.0583C96.7496 45.7088 96.3184 47.431 95.959 49.1532C95.8871 48.7227 95.8153 48.3639 95.7434 48.0768C95.3841 46.6416 95.0247 45.1347 94.7372 43.6995C94.306 41.8338 93.8748 39.968 93.5154 38.1023C93.5154 37.9588 93.3717 37.9588 93.228 37.9588C92.4374 37.9588 91.575 37.9588 90.7844 37.9588H88.4846C88.6283 38.4611 88.7721 38.8916 88.9158 39.3222C89.347 41.4032 89.9938 43.6278 90.6407 45.8523ZM137.859 63.2898C136.637 61.9981 135.056 61.4958 133.259 61.4241C132.397 61.3523 131.463 61.4241 130.6 61.7111C129.522 61.9981 128.588 62.5722 127.869 63.4333C127.079 64.438 126.791 65.5861 126.791 66.8778C126.791 67.4519 126.863 68.0259 126.935 68.6C127.15 69.7482 127.653 70.681 128.516 71.4704C129.306 72.188 130.169 72.6903 131.175 73.0491C131.894 73.3361 132.541 73.6232 133.187 73.982C134.194 74.4843 134.409 75.2019 134.194 76.2065C134.05 76.8523 133.475 77.2829 132.756 77.3546C131.606 77.4264 130.744 76.9958 130.025 76.1347C129.881 75.9912 129.738 75.7759 129.594 75.6324C128.516 76.4218 127.438 77.2829 126.288 78.0722C126.575 78.3593 126.791 78.7181 127.007 79.0051C127.725 79.7945 128.516 80.3685 129.45 80.7273C130.241 81.0144 131.103 81.1579 132.038 81.2296C132.828 81.3014 133.619 81.3014 134.337 81.1579C134.553 81.1579 134.84 81.1579 134.84 80.7991C134.912 80.0815 135.128 79.3639 135.272 78.6463C135.487 77.4982 135.775 76.35 135.99 75.2019C136.134 74.4125 136.493 73.8384 137.212 73.4796C137.428 73.4079 137.5 73.2644 137.5 73.0491C137.5 72.762 137.643 72.475 137.715 72.188C137.715 71.9727 137.859 71.7574 137.643 71.4704C136.996 70.7528 136.206 70.2505 135.343 69.8917C134.553 69.5329 133.762 69.2458 132.972 68.887C132.541 68.6718 132.109 68.4565 131.822 68.0977C131.391 67.6671 131.319 67.0931 131.463 66.519C131.606 65.9449 131.822 65.5861 132.397 65.4426C133.259 65.2273 134.122 65.3708 134.769 66.0167C135.056 66.3037 135.272 66.7343 135.559 67.0931C135.631 67.0213 135.703 67.0213 135.775 66.9495C136.709 66.2319 137.643 65.5144 138.578 64.7968C138.721 64.6532 138.721 64.5815 138.649 64.438C138.434 64.0074 138.218 63.6486 137.859 63.2898ZM104.44 80.9426H109.111V61.7111H104.44V80.9426ZM109.039 40.0398C107.099 40.1116 105.518 39.3222 104.368 37.6717V56.975H109.039V40.0398ZM102.787 78.0722C102.212 76.1347 101.709 74.1972 101.134 72.3315C100.631 70.6093 100.127 68.887 99.6244 67.1648C99.1213 65.4426 98.6182 63.7204 98.1151 61.9981C98.1151 61.8546 98.0432 61.7829 97.8995 61.7829C96.3902 61.7829 94.881 61.7829 93.4436 61.7829C91.6468 67.9542 89.922 74.1255 88.1252 80.3685C87.1909 77.857 86.2566 75.3454 85.3942 72.9056C85.6817 72.6903 85.8973 72.5468 86.1129 72.3315C86.3285 72.1162 86.5441 71.9009 86.7597 71.6139C87.5503 70.4657 87.7659 69.1741 87.8378 67.8824C87.8378 67.3801 87.7659 66.8778 87.694 66.3755C87.5503 65.2273 87.0472 64.2227 86.2566 63.4333C85.1067 62.3569 83.7412 61.8546 82.2319 61.7829C79.9321 61.7111 77.6323 61.7829 75.3325 61.7829C75.2606 61.7829 75.1887 61.7829 75.1169 61.7829V81.0144H79.7884V73.6949H81.082C81.9445 76.1347 82.735 78.5745 83.5975 80.9426H90.9281C91.575 80.9426 92.1499 80.9426 92.7968 80.9426C92.8686 80.9426 93.0124 80.8708 93.0124 80.7991C93.1561 80.225 93.228 79.6509 93.3717 79.0769C93.4436 78.6463 93.5873 78.144 93.6592 77.7134C95.0966 77.7134 96.534 77.7134 97.9714 77.7134C98.0432 77.7134 98.1151 77.7852 98.1151 77.857C98.187 78.2875 98.2588 78.6463 98.4026 79.0769C98.5463 79.7227 98.6901 80.3685 98.8338 81.0144H103.721C103.721 80.9426 103.721 80.8708 103.721 80.7991C103.362 79.8662 103.074 78.9333 102.787 78.0722ZM83.0225 68.5282C82.8788 69.2458 82.3038 69.6046 81.657 69.7481C81.5132 69.7481 81.3695 69.8199 81.2976 69.8199C80.7945 69.8199 80.2196 69.8199 79.6446 69.8199V65.5861C80.4352 65.5861 81.1539 65.5861 81.9445 65.8014C82.5913 66.0167 83.0225 66.5907 83.0944 67.3083C83.0944 67.7389 83.0944 68.0977 83.0225 68.5282ZM94.6654 73.7667C95.0247 71.9727 95.3841 70.2505 95.7434 68.4565H95.8153C96.1746 70.2505 96.534 71.9727 96.8933 73.7667H94.6654Z" fill="#282828"/>
</svg>
