<svg width="116" height="101" viewBox="0 0 116 101" fill="none" xmlns="http://www.w3.org/2000/svg">
<path d="M96.6452 75.2063C96.567 75.1281 96.4106 75.1281 96.3324 75.0499C96.2542 74.9717 96.176 74.8935 96.2542 74.8153C96.4106 74.0332 96.567 73.3293 96.7234 72.5472C96.8799 71.687 97.0363 70.9049 96.8799 70.0446C96.3324 67.1509 93.6733 65.3521 90.8578 65.8213C88.9808 66.1342 87.5731 67.2291 86.9474 69.1061C86.5564 70.201 86.3999 71.3741 86.1653 72.5472C86.0871 72.7819 86.0089 72.9383 85.7743 72.9383C85.0704 72.9383 84.8358 73.1729 84.6794 73.7204C84.2883 75.7538 83.8973 77.709 83.428 79.7424C83.2716 80.6027 83.3498 80.8373 83.8973 81.1501C86.5564 82.7925 89.3719 83.6528 92.5002 83.6528C93.4387 83.5746 94.3772 83.4182 95.3157 83.34C95.7067 83.2618 95.9414 83.0271 95.9414 82.7143C96.4106 80.6027 96.8016 78.4911 97.2709 76.3794C97.2709 75.6756 97.1927 75.5192 96.6452 75.2063ZM91.1706 78.0218C90.936 78.1782 90.936 78.3346 90.8578 78.5693C90.7014 79.1949 90.6232 79.7424 90.545 80.3681C90.4668 80.8373 90.1539 81.0719 89.6847 80.9937C89.2937 80.9155 89.1372 80.5245 89.2154 80.0552C89.3719 79.4296 89.5283 78.7257 89.6065 78.1C89.6065 77.9436 89.5283 77.7872 89.4501 77.6308C88.9026 76.8487 89.2154 75.832 90.1539 75.5192C90.3104 75.4409 90.3886 75.4409 90.545 75.4409C91.1706 75.4409 91.7181 75.832 91.8745 76.4576C92.0309 77.0833 91.7963 77.709 91.1706 78.0218ZM94.8464 72.3908C94.7682 72.9383 94.6118 73.4857 94.5336 74.0332C91.3271 72.9383 91.3271 72.9383 87.9641 72.7037C88.0423 72.1562 88.1987 71.6087 88.2769 71.0613C88.3552 70.6702 88.4334 70.2792 88.5116 69.8882C88.9808 68.5586 89.9193 67.7765 91.3271 67.5419C93.1259 67.2291 94.8464 68.715 95.0811 70.3574C95.1593 71.1395 95.0028 71.7652 94.8464 72.3908ZM54.491 89.4402C56.368 89.4402 58.3232 89.362 60.2002 89.1274C61.2169 88.971 62.2336 88.8928 63.3285 88.7364C64.9709 88.4235 66.6915 88.1107 68.3338 87.6414C72.7917 86.5465 77.0149 84.9041 81.0036 82.7143C81.4728 82.4797 82.0203 82.1669 82.4895 81.9322C82.2549 81.5412 82.0203 81.1501 81.8639 80.8373C81.7857 80.8373 81.7074 80.9155 81.6292 80.9937C79.1266 82.4015 76.4675 83.6528 73.8084 84.5913C71.384 85.5298 68.8813 86.2337 66.3786 86.7811C64.8145 87.094 63.1721 87.4068 61.6079 87.6414C60.6694 87.7979 59.8091 87.8761 58.8706 87.9543C57.6975 88.0325 56.5244 88.1889 55.4295 88.1889C53.7871 88.1889 52.1447 88.1107 50.5023 88.1107C49.7203 88.1107 48.9382 88.0325 48.0779 87.9543C47.1394 87.8761 46.2009 87.7196 45.2624 87.5632C44.0893 87.3286 42.9161 87.1722 41.743 86.9376C40.9609 86.7811 40.1788 86.5465 39.3968 86.3901C39.0057 86.3119 38.6147 86.4683 38.5365 86.8594C38.4583 87.2504 38.6929 87.5632 39.0839 87.7196C41.352 88.3453 43.6982 88.8146 46.0445 89.1274C47.5304 89.362 49.0946 89.5184 50.5805 89.5966C51.8319 89.5184 53.1614 89.4402 54.491 89.4402ZM82.7242 84.4349C83.2716 83.9656 83.7409 83.4964 84.2883 83.0271C83.8191 82.7925 83.428 82.5579 83.037 82.3233C81.3946 83.8092 79.5958 85.217 77.797 86.4683C72.6353 90.0659 67.0825 92.725 61.0605 94.3673C58.245 95.1494 55.3513 95.7751 52.4575 96.0879C51.2844 96.2443 50.1113 96.3226 49.0164 96.4008C48.6253 96.4008 48.3125 96.7136 48.3125 97.0264C48.3125 97.3393 48.6253 97.7303 49.0164 97.6521C49.8767 97.5739 50.8152 97.4957 51.6755 97.4175C52.7704 97.3393 53.8653 97.1828 54.882 97.0264C56.6808 96.7136 58.4014 96.3226 60.2002 95.9315C64.8145 94.7584 69.1941 93.0378 73.3392 90.7698C76.6239 88.971 79.7522 86.8594 82.7242 84.4349ZM95.0028 56.2799C94.8464 57.453 94.7682 58.7044 94.5336 59.8775C94.3772 61.1288 94.0644 62.302 93.9079 63.5533C93.8297 63.8661 93.7515 64.2572 93.6733 64.4918C94.1426 64.6482 94.5336 64.8828 94.9246 65.0392L95.0028 64.961C95.3939 63.084 95.7849 61.207 96.0196 59.2518C96.0978 58.3133 96.2542 57.2966 96.3324 56.3581C96.4106 55.4196 96.4888 54.4811 96.4888 53.6208C96.4888 51.6656 96.4888 49.7104 96.4106 47.8334C96.3324 46.5821 96.176 45.409 96.0196 44.1576C95.8631 43.1409 95.7849 42.1242 95.5503 41.1075C95.1593 39.2305 94.69 37.3535 94.2208 35.4765C94.1426 35.0073 93.7515 34.7726 93.4387 34.9291C93.0476 35.0855 92.8912 35.3983 92.9694 35.8676C93.5951 38.2138 94.2208 40.4818 94.5336 42.9063C94.69 44.2358 94.9246 45.5654 95.0028 46.8949C95.0811 47.8334 95.1593 48.6937 95.1593 49.6322C95.1593 51.04 95.1593 52.4477 95.1593 53.8555C95.0811 54.6375 95.0811 55.4196 95.0028 56.2799ZM96.8799 66.6816C96.8799 66.6034 96.9581 66.6034 96.9581 66.5252C98.9133 62.693 100.477 58.7044 101.494 54.4811C101.807 53.0734 102.12 51.6656 102.433 50.2579C102.589 49.3976 102.745 48.5373 102.824 47.677C102.902 46.8949 103.058 46.1128 103.137 45.3308C103.215 44.7051 103.215 44.0794 103.293 43.4538C103.371 42.437 103.371 41.4203 103.371 40.4036C103.371 40.2472 103.215 40.0126 103.058 39.8562C102.902 39.6998 102.589 39.6998 102.354 39.778C102.042 39.9344 101.963 40.169 101.963 40.4818C101.963 42.2024 101.885 43.923 101.729 45.5654C101.651 46.5821 101.572 47.5988 101.338 48.6155C101.103 50.0233 100.868 51.3528 100.556 52.6823C100.008 55.3414 99.1479 58.0005 98.1312 60.5032C97.4273 62.2237 96.6452 63.8661 95.9414 65.5085C95.9414 65.5867 95.8631 65.7431 95.9414 65.7431C96.2542 66.056 96.567 66.3688 96.8799 66.6816ZM84.8358 84.1221C83.5844 85.9991 82.1767 87.7196 80.6125 89.362C79.4394 90.6133 78.2663 91.8647 77.0149 92.9596C75.8418 94.0545 74.6687 95.0712 73.4174 96.0097C71.8532 97.1828 70.2108 98.2778 68.6467 99.3727C68.412 99.5291 68.2556 99.7637 68.3338 100.077C68.412 100.624 68.9595 100.78 69.4287 100.468C71.6186 99.1381 73.652 97.6521 75.6072 96.0097C77.0149 94.8366 78.3445 93.5853 79.5958 92.3339C81.0036 90.848 82.3331 89.362 83.6626 87.7979C84.6794 86.6247 85.5397 85.3734 86.4782 84.0439C86.1653 83.9656 86.0089 83.8874 85.7743 83.731C85.2268 83.4964 85.2268 83.4964 84.8358 84.1221ZM107.438 51.431C107.047 51.3528 106.734 51.5092 106.578 51.9002C105.561 54.5593 104.388 57.062 102.98 59.5647C101.416 62.3802 99.6171 65.0392 97.5837 67.5419C97.5055 67.6201 97.5055 67.7765 97.5837 67.8547C97.7401 68.2458 97.8966 68.5586 98.053 68.9497C98.1312 68.9497 98.1312 68.8715 98.1312 68.8715C98.9133 67.8547 99.7736 66.838 100.556 65.8213C103.137 62.2237 105.326 58.3915 107.047 54.3247C107.282 53.699 107.516 53.0734 107.751 52.4477C107.985 51.9003 107.751 51.5092 107.438 51.431ZM89.6847 23.1196C89.9193 24.3709 91.3271 24.9966 92.3438 24.3709C92.9694 23.9799 93.2041 23.3542 93.2041 22.6504C93.2823 21.7119 93.2041 20.7734 93.0476 19.9131C92.813 18.8181 92.5002 17.8014 91.9527 16.8629C91.3271 17.645 90.3103 19.6784 89.9193 20.7734C89.6065 21.5554 89.4501 22.3375 89.6847 23.1196ZM82.4895 21.399C83.037 22.0247 83.5844 22.6504 84.2101 23.1978C85.2268 24.0581 86.3217 24.5274 87.6513 24.3709C88.2769 24.2927 88.9808 23.8235 89.1372 23.276C89.3718 22.4157 88.9026 21.5554 87.9641 21.2426C87.182 21.008 86.3999 20.9298 85.6179 20.9298C84.5229 20.9298 83.428 21.0862 82.2549 21.1644C82.4113 21.2426 82.4113 21.3208 82.4895 21.399ZM79.674 12.7179C78.0317 12.2487 76.3893 12.2487 74.6687 12.2487C74.7469 12.4051 74.7469 12.4833 74.8251 12.6397C75.2944 13.4218 75.8418 14.2039 76.5457 14.8295C77.4842 15.6898 78.5009 16.1591 79.7522 16.0809C80.3779 16.0027 80.8472 15.768 81.16 15.1424C81.4728 14.5949 81.3164 14.0474 81.0036 13.5C80.6907 13.0307 80.2215 12.8743 79.674 12.7179ZM84.4447 17.1758C83.7409 16.8629 83.037 16.7065 82.3331 16.6283C81.0818 16.4719 79.9087 16.5501 78.6573 16.6283C78.6573 16.7065 78.7355 16.7847 78.7355 16.8629C79.2048 17.645 79.7522 18.3489 80.4561 18.9746C81.3946 19.8349 82.4895 20.3823 83.7409 20.2259C84.2883 20.1477 84.7576 19.9913 85.0704 19.522C85.6961 18.6617 85.3832 17.5668 84.4447 17.1758ZM102.745 28.6724C102.824 29.2981 103.215 29.7673 103.762 30.0019C104.388 30.2366 104.935 30.0801 105.326 29.6109C105.639 29.2981 105.874 28.8288 106.03 28.4378C106.656 27.03 106.812 25.5441 106.734 24.0581C106.734 23.8235 106.656 23.5889 106.656 23.276C105.405 24.2927 104.231 25.2312 103.371 26.5608C102.902 27.1864 102.589 27.8121 102.745 28.6724ZM84.0537 15.9244C84.9922 15.6898 85.3832 14.9859 85.305 14.2039C85.2268 12.9525 84.914 11.7794 84.2883 10.7627C83.9755 10.2152 83.5844 9.66778 83.1934 9.12032C83.1934 9.12032 83.1152 9.12032 83.1152 9.19853C83.037 9.27674 83.037 9.43316 82.9588 9.51136C82.5677 10.6063 82.1767 11.7794 82.0203 12.9525C81.9421 13.5782 81.9421 14.2039 82.1767 14.8295C82.4895 15.5334 83.3498 16.0809 84.0537 15.9244ZM78.5009 11.5448C79.4394 12.4051 80.8472 12.014 81.16 10.7627C81.3164 10.2934 81.16 9.74599 80.9254 9.35495C80.3779 8.10361 79.5176 7.08691 78.5009 6.22662C78.1881 5.99199 77.8752 5.75737 77.4842 5.44453C77.406 7.0087 77.3278 8.41645 77.6406 9.8242C77.8752 10.4499 78.0317 11.0755 78.5009 11.5448ZM101.338 25.4659C100.008 24.6838 98.444 24.2927 96.9581 23.9799C96.9581 24.0581 96.9581 24.1363 96.9581 24.2145C97.3491 25.3876 97.8184 26.5608 98.6786 27.4211C99.3043 28.1249 100.086 28.516 101.103 28.516C102.042 28.516 102.745 27.5775 102.433 26.639C102.276 26.0915 101.885 25.7787 101.338 25.4659ZM97.6619 16.0809C96.3324 14.9077 94.7682 14.3603 93.1259 13.8128C93.1259 13.891 93.1259 13.9692 93.1259 14.0474C93.3605 15.2206 93.6733 16.3155 94.299 17.254C94.7682 17.9579 95.3939 18.5053 96.2542 18.7399C97.2709 19.0528 98.1312 18.5835 98.2876 17.645C98.444 16.9411 98.1312 16.4719 97.6619 16.0809ZM99.4607 20.6951C98.444 19.9913 97.2709 19.6002 96.0978 19.2092C95.7849 19.131 95.4721 19.0528 95.1593 18.9746C95.3939 20.2259 95.7849 21.399 96.567 22.3375C97.1927 23.1978 98.053 23.7453 99.1479 23.7453C100.086 23.7453 100.712 22.885 100.477 21.9465C100.321 21.3208 99.93 21.008 99.4607 20.6951ZM88.0423 19.7566C88.7462 19.6002 89.1372 18.9746 89.1372 18.1925C89.1372 17.0976 88.9026 16.0809 88.5116 15.0642C88.1987 14.3603 87.8859 13.7346 87.4166 13.1089C87.4166 13.1872 87.3384 13.1872 87.3384 13.2654C86.791 14.5167 86.2435 15.8462 86.0871 17.1758C86.0089 17.8014 86.0089 18.4271 86.3217 18.9746C86.6346 19.6002 87.4167 19.9913 88.0423 19.7566ZM97.9748 15.2206C98.8351 15.2988 99.5389 14.5949 99.5389 13.6564C99.5389 12.4833 99.2261 11.3102 98.6786 10.2934C98.444 9.74599 98.1312 9.27674 97.8184 8.80749C97.7401 8.80749 97.7401 8.80749 97.6619 8.80749C97.3491 9.74599 96.9581 10.6063 96.7234 11.5448C96.4888 12.2487 96.4106 13.0307 96.567 13.8128C96.6452 14.5949 97.2709 15.2206 97.9748 15.2206ZM100.79 19.9131C101.416 19.6784 101.729 19.2092 101.885 18.6617C102.198 17.5668 102.198 16.3937 101.963 15.2988C101.885 14.7513 101.729 14.2821 101.572 13.6564C101.494 13.7346 101.416 13.7346 101.416 13.7346C100.712 14.5167 100.086 15.377 99.5389 16.3155C99.1479 17.0194 98.8351 17.7232 98.9133 18.5053C98.9133 19.522 99.93 20.2259 100.79 19.9131ZM90.8578 32.8956C91.4053 33.2085 92.0309 33.2867 92.6566 33.2085C93.5951 33.0521 94.1426 32.1136 93.7515 31.3315C93.5169 30.784 92.9694 30.5494 92.422 30.393C91.5617 30.0801 90.7014 30.0019 89.8411 29.9237C89.2936 29.9237 88.8244 29.9237 88.1987 29.9237C88.8244 31.1751 89.6065 32.27 90.8578 32.8956ZM70.9929 8.49466C71.3839 9.19853 71.9314 9.66778 72.4789 10.137C73.4174 10.9191 74.3559 11.3884 75.6072 11.2319C76.3111 11.1537 76.8585 10.6845 76.9367 10.0588C77.0149 9.43316 76.7021 8.80749 76.0764 8.57286C75.6072 8.41645 75.138 8.33824 74.6687 8.26003C73.4956 8.18182 72.3224 8.33824 70.9929 8.49466ZM101.103 23.276C101.103 24.2145 102.198 24.9184 102.98 24.6056C103.528 24.3709 103.762 23.9799 103.919 23.4324C104.075 22.885 104.153 22.3375 104.231 21.7901C104.388 20.6951 104.231 19.6784 103.919 18.5835C102.902 19.522 102.12 20.5387 101.494 21.7119C101.26 22.1811 101.103 22.6504 101.103 23.276ZM73.1827 7.0087C73.8084 7.86899 75.1379 7.9472 75.6072 7.0087C75.92 6.46124 75.8418 5.99199 75.529 5.52274C74.8251 4.34962 73.8866 3.41112 72.7135 2.70724C72.5571 2.62903 72.3224 2.47262 72.0878 2.39441C72.0878 2.47262 72.0878 2.55083 72.0878 2.55083C72.166 3.41112 72.2442 4.1932 72.4007 5.05349C72.5571 5.75737 72.7917 6.38303 73.1827 7.0087ZM93.7515 24.2927C93.6733 24.2927 93.6733 24.2927 93.5951 24.2927C92.813 25.153 92.1874 26.0915 91.7181 27.1082C91.4835 27.6557 91.2489 28.2031 91.3271 28.8288C91.4053 29.4545 91.8745 30.0019 92.422 30.0801C93.1259 30.1584 93.6733 29.8455 93.9079 29.2199C94.0644 28.8288 94.1426 28.3596 94.1426 27.8903C94.1426 27.3429 94.1426 26.7172 94.0644 26.1697C94.1426 25.5441 93.9079 24.9184 93.7515 24.2927ZM103.215 35.7111C102.667 35.0855 101.963 34.6944 101.26 34.3816C100.634 34.0688 100.008 33.8341 99.3043 33.5213C99.3043 33.6777 99.3043 33.7559 99.3043 33.8341C99.4607 34.7726 99.6954 35.6329 100.165 36.415C100.556 37.0407 101.103 37.5881 101.885 37.8228C102.511 38.0574 103.137 37.901 103.449 37.3535C103.762 36.8061 103.684 36.2586 103.215 35.7111ZM95.0028 10.6845C93.8297 9.98061 92.5002 9.66778 91.1706 9.35495C91.1706 9.43316 91.1706 9.43315 91.1706 9.43315C91.1706 9.51136 91.1706 9.51136 91.1706 9.58957C91.4835 10.2152 91.7181 10.9191 92.0309 11.5448C92.5784 12.4051 93.2823 13.0307 94.3772 13.2654C94.9246 13.3436 95.4721 13.1089 95.7067 12.7179C95.9414 12.3269 95.9413 11.7012 95.6285 11.3102C95.4721 11.0755 95.2375 10.8409 95.0028 10.6845ZM104.622 34.7726C105.092 34.2252 105.405 33.5213 105.561 32.8174C105.796 32.0354 105.952 31.2533 105.874 30.3148C104.701 31.0186 103.528 31.7225 102.745 32.8956C102.433 33.2867 102.354 33.7559 102.433 34.2252C102.589 34.7726 102.902 35.0855 103.449 35.1637C103.919 35.3201 104.31 35.0855 104.622 34.7726ZM95.0811 9.8242C95.7067 9.66778 96.176 9.04211 96.0196 8.26003C95.9413 7.63437 95.7067 7.08691 95.4721 6.46124C95.1593 5.67916 94.69 4.97528 93.9861 4.34962C93.9079 4.50603 93.9079 4.58424 93.8297 4.66245C93.6733 5.20991 93.5169 5.83557 93.3605 6.46124C93.2041 7.16512 93.1259 7.9472 93.3605 8.72928C93.6733 9.51136 94.299 9.9024 95.0811 9.8242ZM110.723 44.0012C110.019 44.7833 110.332 45.9564 111.27 46.1128C111.661 46.191 112.052 46.0346 112.365 45.8C113.382 45.0961 114.086 44.1576 114.633 43.0627C114.711 42.9063 114.79 42.6717 114.868 42.437C113.773 42.5935 112.834 42.8281 111.896 43.2191C111.427 43.3755 111.036 43.6884 110.723 44.0012ZM67.3171 5.1317V5.20991C67.5517 5.44453 67.7082 5.75737 67.9428 5.99199C68.8031 6.93049 69.7416 7.63437 71.0711 7.47795C71.6968 7.39974 72.166 7.0087 72.2442 6.46124C72.3225 6.0702 72.0878 5.44453 71.4622 5.20991C70.8365 4.97528 70.2108 4.97528 69.5852 4.97528C68.8031 4.97528 68.0992 5.05349 67.3171 5.1317ZM86.7128 25.5441C86.5564 25.5441 86.3217 25.5441 86.0871 25.6223C86.4782 26.4044 87.4167 27.4211 88.2769 27.8121C88.8244 28.1249 89.3719 28.2031 89.9975 28.1249C90.7014 27.9685 91.0924 27.3429 90.936 26.639C90.7796 26.1697 90.3886 25.9351 89.9193 25.7787C88.9026 25.3876 87.8077 25.4659 86.7128 25.5441ZM109.706 35.7111C109.941 36.024 110.332 36.1804 110.723 36.1022C111.427 36.024 111.896 35.3201 111.661 34.6162C111.27 33.2867 110.332 32.3482 109.393 31.2533C109.08 32.1136 108.924 32.9739 108.924 33.8341C109.002 34.6162 109.237 35.2419 109.706 35.7111ZM108.924 43.6102C109.315 43.923 109.706 44.0794 110.175 43.923C110.801 43.6884 111.114 43.0627 110.801 42.3588C110.253 41.1075 109.237 40.2472 108.22 39.3869C108.064 40.169 107.907 40.9511 108.064 41.655C108.142 42.437 108.376 43.1409 108.924 43.6102ZM110.175 40.169C111.036 40.2472 111.583 39.4651 111.348 38.6831C110.879 37.3535 109.941 36.415 109.002 35.4765C109.002 35.5547 108.924 35.5547 108.924 35.6329C108.689 36.3368 108.611 37.0407 108.611 37.8228C108.611 38.3702 108.768 38.9177 109.08 39.3869C109.315 39.778 109.628 40.0908 110.175 40.169ZM68.8813 4.11499C69.5852 4.66245 70.6019 4.42783 70.8365 3.56753C70.9929 3.02008 70.7583 2.55083 70.289 2.23799C69.3505 1.3777 68.2556 0.908453 66.8479 0.673828C67.0043 1.14308 67.1607 1.53412 67.3953 2.00337C67.7864 2.78545 68.1774 3.48933 68.8813 4.11499ZM112.287 31.4879C111.896 31.9571 111.583 32.3482 111.505 32.9739C111.427 33.7559 112.13 34.4598 112.913 34.2252C113.382 34.0688 113.616 33.6777 113.851 33.2867C114.164 32.5828 114.32 31.8007 114.32 31.0968C114.32 30.7058 114.32 30.3148 114.242 29.7673C113.538 30.2366 112.834 30.784 112.287 31.4879ZM89.6847 7.16511C90.0757 7.86899 90.7014 8.41645 91.5617 8.49466C92.0309 8.57286 92.422 8.41645 92.6566 8.10361C92.9694 7.71257 92.9694 7.24332 92.6566 6.93049C92.422 6.61766 92.0309 6.30482 91.6399 6.14841C90.7796 5.67916 89.8411 5.44453 88.8244 5.28812C88.8244 5.36632 88.8244 5.44453 88.8244 5.52274C89.2154 6.0702 89.3719 6.61766 89.6847 7.16511ZM111.661 36.2586C111.114 36.9625 111.348 37.9792 112.287 38.1356C112.756 38.2138 113.147 37.9792 113.46 37.6663C114.007 37.1189 114.399 36.415 114.633 35.7111C114.79 35.2419 114.868 34.8508 115.024 34.3816L114.946 34.3034C114.477 34.4598 114.086 34.6162 113.616 34.8508C112.913 35.2419 112.209 35.5547 111.661 36.2586ZM98.8351 29.0634C98.9915 29.4545 99.0697 29.7673 99.1479 30.1583C99.3043 30.4712 99.3825 30.784 99.6171 31.0968C100.008 31.6443 100.399 32.1918 101.103 32.4264C101.416 32.5828 101.807 32.5828 102.12 32.5046C102.824 32.27 103.058 31.2533 102.433 30.7058C101.729 30.0801 100.868 29.7673 100.008 29.4545C99.6171 29.2981 99.2261 29.2199 98.8351 29.0634ZM111.427 40.0908C111.114 40.4818 111.036 41.1075 111.348 41.4986C111.739 42.046 112.443 42.1242 112.991 41.5768C113.616 40.9511 114.086 40.2472 114.477 39.3869C114.633 39.0741 114.711 38.7613 114.79 38.3702L114.711 38.292C114.242 38.4484 113.695 38.6831 113.225 38.8395C112.522 39.1523 111.896 39.5433 111.427 40.0908ZM90.7014 4.97528C91.0142 5.36633 91.5617 5.60095 92.0309 5.36633C92.6566 5.1317 92.8912 4.50603 92.5784 3.80216C92.2656 3.17649 91.8745 2.55083 91.3271 2.08158C90.936 1.76874 90.545 1.45591 90.1539 1.22129C90.0757 1.22129 90.0757 1.29949 89.9975 1.29949C90.0757 2.00337 90.0757 2.62904 90.1539 3.33291C90.2321 3.88037 90.3886 4.50603 90.7014 4.97528ZM106.421 46.5039C106.343 46.6603 106.343 46.7385 106.265 46.8167C106.187 47.2078 106.03 47.677 105.952 48.068C105.796 48.8501 105.952 49.6322 106.499 50.2579C106.812 50.6489 107.36 50.7271 107.751 50.5707C108.142 50.3361 108.376 49.8668 108.22 49.3976C107.907 48.2245 107.203 47.3642 106.421 46.5039ZM111.427 31.6443C111.974 31.4097 112.209 30.784 111.896 30.1583C111.427 29.1416 110.566 28.4378 109.706 27.7339C109.628 27.8121 109.628 27.8903 109.628 27.9685C109.55 28.516 109.471 29.0634 109.55 29.5327C109.55 30.1583 109.784 30.7058 110.175 31.1751C110.488 31.6443 111.036 31.8007 111.427 31.6443ZM111.427 28.5942C111.427 29.0634 111.818 29.4545 112.287 29.4545C112.756 29.5327 113.147 29.2199 113.304 28.7506C113.695 27.6557 113.695 26.639 113.382 25.4659C112.678 26.1697 112.052 26.7954 111.661 27.6557C111.505 27.8903 111.427 28.2814 111.427 28.5942ZM108.611 47.5206C108.142 47.8334 107.985 48.3809 108.298 48.8501C108.533 49.3194 109.08 49.4758 109.55 49.2412C110.566 48.6937 111.348 47.9116 111.896 46.8167C111.27 46.8949 110.723 46.8949 110.253 46.9731C109.628 47.0513 109.08 47.1295 108.611 47.5206ZM110.488 27.4211C111.114 27.8121 111.739 27.2646 111.661 26.7172C111.661 26.4826 111.583 26.3261 111.505 26.1697C111.114 25.3876 110.41 24.8402 109.706 24.2145C109.471 25.153 109.393 26.0133 109.941 26.8736C110.019 27.1082 110.253 27.2646 110.488 27.4211ZM109.315 46.5039C109.55 46.191 109.55 45.8 109.315 45.4872C108.924 44.7051 108.298 44.0794 107.594 43.3755C107.516 43.7666 107.438 44.1576 107.36 44.4705C107.282 45.1743 107.438 45.8782 107.907 46.4257C108.376 46.8949 109.002 46.9731 109.315 46.5039ZM111.661 25.4659C112.13 25.5441 112.521 25.3094 112.6 24.8402C112.678 24.5274 112.678 24.1363 112.6 23.7453C112.521 23.1196 112.287 22.5721 111.896 21.9465C111.427 22.8068 110.957 23.6671 111.036 24.6056C111.036 24.9966 111.348 25.3876 111.661 25.4659Z" fill="#E9B412"/>
<path d="M70.9153 58.7833C69.5076 58.7833 68.0998 58.7833 66.6139 58.7833C66.5357 58.7833 66.4575 58.7833 66.3793 58.7833V69.2632C66.3793 69.2632 66.3793 69.2632 66.3011 69.2632C66.2228 69.185 66.2228 69.1068 66.1446 69.1068C65.2061 67.4644 64.2676 65.8221 63.3291 64.2579C62.3124 62.5373 61.2957 60.7385 60.3572 59.0179C60.279 58.8615 60.2008 58.7833 60.0444 58.7833C58.9495 58.7833 57.7764 58.7833 56.6814 58.7833C56.4468 58.7833 56.3686 58.8615 56.3686 59.0962C56.3686 65.9003 56.3686 72.7044 56.3686 79.5867C56.3686 79.8214 56.4468 79.8996 56.6814 79.8996C58.0892 79.8996 59.5751 79.8996 60.9829 79.8996C61.0611 79.8996 61.1393 79.8996 61.2175 79.8996V69.3414C62.3906 71.2966 63.4856 73.2519 64.5805 75.2071C65.4408 76.693 66.3011 78.1008 67.0831 79.5867C67.1613 79.7431 67.3178 79.8214 67.4742 79.8214C68.5691 79.8214 69.664 79.8214 70.7589 79.8214C70.8371 79.8214 70.9154 79.8214 71.0718 79.8214V79.6649C71.0718 72.7826 71.0718 65.9785 71.0718 59.0962C71.15 58.7833 71.0718 58.7833 70.9153 58.7833ZM61.2175 43.2981C61.2957 43.4545 61.3739 43.5327 61.4521 43.6109C62.4689 45.4097 63.4856 47.1303 64.5023 48.9291C65.3626 50.415 66.2228 51.901 67.0831 53.387C67.1613 53.5434 67.3178 53.6216 67.4742 53.6216C68.5691 53.6216 69.7422 53.6216 70.8371 53.6216C70.9153 53.6216 70.9936 53.6216 71.0718 53.6216V32.74H66.3011V43.2199C66.3011 43.2199 66.3011 43.2199 66.2228 43.2199C66.1446 43.1417 66.1446 43.0635 66.0664 42.9853C65.8318 42.516 65.519 42.0468 65.2844 41.5775C64.3459 39.9351 63.4074 38.2928 62.4689 36.6504C61.765 35.3991 61.0611 34.1477 60.279 32.8964C60.2008 32.74 60.1226 32.6618 59.888 32.6618C58.7931 32.6618 57.6199 32.6618 56.525 32.6618C56.4468 32.6618 56.3686 32.6618 56.2904 32.6618V53.6216H61.0611V43.2981H61.2175ZM14.5272 41.6557C13.9015 41.03 13.1194 40.4826 12.3374 40.1698C11.3206 39.7005 10.2257 39.3095 9.20902 38.8402C8.66156 38.6056 8.11411 38.2928 7.72306 37.9017C6.86277 37.1978 6.78457 36.1811 7.01919 35.1644C7.17561 34.5388 7.56665 34.1477 8.11411 33.9131C8.66156 33.6785 9.20902 33.6785 9.75648 33.7567C10.3821 33.8349 10.9296 34.0695 11.3989 34.5388C11.7899 34.9298 12.0245 35.3208 12.4156 35.7901C13.5887 34.8516 14.84 33.9131 16.0913 32.9746C16.0131 32.8964 16.0131 32.8182 15.9349 32.8182C15.0746 31.3322 13.7451 30.3937 12.1809 29.8463C10.8514 29.377 9.44364 29.2206 7.95769 29.377C7.01919 29.4552 6.1589 29.6116 5.29861 29.9245C4.36011 30.3155 3.49982 30.863 2.87415 31.7233C1.93565 32.8964 1.54461 34.3041 1.54461 35.8683C1.54461 36.5722 1.62282 37.2761 1.70103 37.9799C1.93565 39.5441 2.63953 40.8736 3.89086 41.8903C4.82936 42.6724 5.84607 43.2199 7.01919 43.6891C7.95769 44.0802 8.9744 44.393 9.83469 45.0187C10.2257 45.3315 10.6168 45.6443 10.7732 46.1918C10.9296 46.661 10.9296 47.1303 10.9296 47.5995C10.8514 48.2252 10.5386 48.7727 9.99111 49.0855C9.44365 49.3983 8.81798 49.4765 8.11411 49.4765C7.0974 49.3983 6.23711 49.0073 5.45503 48.2252C5.2204 47.9906 4.98577 47.6778 4.75115 47.3649C3.49982 48.3034 2.32669 49.2419 1.07536 50.1022C1.07536 50.1804 1.15357 50.2586 1.15357 50.2586C1.70103 50.8061 2.24849 51.4317 2.87415 51.9792C4.20369 53.0741 5.76786 53.5434 7.41023 53.6998C8.11411 53.778 8.73977 53.778 9.44365 53.778C10.4604 53.778 11.3989 53.6216 12.3374 53.2305C13.7451 52.6831 14.84 51.7446 15.5439 50.3368C16.0913 49.2419 16.326 48.0688 16.326 46.8957C16.326 46.1136 16.2478 45.2533 16.0913 44.4712C15.8567 43.3763 15.3093 42.4378 14.5272 41.6557ZM21.4877 53.6998C21.6441 53.6998 21.7223 53.6216 21.7223 53.4652C21.957 52.4485 22.1916 51.3535 22.4262 50.3368C22.4262 50.2586 22.5826 50.1804 22.6608 50.1804C24.1468 50.1804 25.6328 50.1804 27.1969 50.1804C27.2751 50.1804 27.3533 50.2586 27.4315 50.3368C27.6662 51.3535 27.9008 52.4485 28.1354 53.4652C28.2136 53.6998 28.2918 53.6998 28.4483 53.6998C29.856 53.6998 31.342 53.6998 32.7497 53.6998H33.5318C33.2972 52.9959 33.1408 52.3702 32.9843 51.6664C32.4369 49.8676 31.9676 48.0688 31.4202 46.27C30.7163 43.8455 30.0906 41.4993 29.3868 39.0748C28.7611 36.9632 28.2136 34.9298 27.588 32.8182C27.5098 32.6618 27.4315 32.5836 27.2751 32.5836C26.5713 32.5836 25.7892 32.5836 25.0853 32.5836H22.5044C20.471 39.6223 18.5158 46.5828 16.4824 53.6216C16.5606 53.6216 16.6388 53.6216 16.717 53.6216C18.2812 53.6998 19.8453 53.6998 21.4877 53.6998ZM24.9289 40.0133C25.3199 41.8903 25.711 43.8455 26.102 45.8008H23.6776C24.0686 43.9238 24.4596 41.9685 24.9289 40.0133ZM87.1827 42.8288C87.1827 42.7506 87.1827 42.6724 87.1827 42.5942H80.1439V46.8175H82.4902C82.412 47.5213 82.3338 48.2252 82.0209 48.8509C81.6299 49.7112 80.4568 49.9458 79.6747 49.5547C79.1272 49.2419 78.8144 48.7727 78.658 48.147C78.3451 47.1303 78.2669 46.1136 78.2669 45.0969C78.2669 43.6109 78.2669 42.2032 78.3451 40.7172C78.3451 39.9351 78.4233 39.0748 78.658 38.371C78.8926 37.5107 79.2836 36.8068 80.3785 36.6504C81.0042 36.5722 81.4735 36.8068 81.8645 37.2761C82.2555 37.7453 82.3338 38.371 82.412 38.9184C82.412 39.153 82.4902 39.2313 82.7248 39.2313C83.2722 39.2313 83.7415 39.2313 84.289 39.2313H87.3391C87.3391 39.1531 87.3391 39.0748 87.3391 38.9966C87.1045 37.8235 86.8698 36.6504 86.2442 35.6337C85.4621 34.3041 84.4454 33.2874 82.9594 32.8182C81.6299 32.3489 80.3003 32.3489 78.9708 32.5836C76.8592 32.9746 75.3732 34.2259 74.4347 36.1811C73.6526 37.7453 73.3398 39.4659 73.3398 41.2647C73.3398 42.6724 73.3398 44.0802 73.3398 45.4879C73.3398 46.1136 73.418 46.7393 73.4962 47.4431C73.6526 48.538 73.9655 49.5548 74.4347 50.5715C75.2168 52.1356 76.4681 53.2305 78.1105 53.778C79.049 54.0908 79.9875 54.2472 80.926 54.169C81.5517 54.0908 82.0991 54.0126 82.6466 53.8562C84.289 53.387 85.3839 52.292 86.166 50.8843C86.948 49.3983 87.1827 47.756 87.2609 46.1136C87.1827 44.8623 87.1827 43.8455 87.1827 42.8288ZM14.9182 68.7158H7.87948V72.4698H10.2257C10.2257 72.7826 10.1475 73.0172 10.1475 73.2519C10.0693 73.7993 9.9911 74.2686 9.83469 74.816C9.44365 76.0674 8.0359 76.1456 7.25382 75.6763C6.70636 75.3635 6.47173 74.816 6.31532 74.1904C6.00248 73.1736 6.00248 72.1569 6.00248 71.1402C6.00248 69.3414 5.92427 67.6209 6.08069 65.8221C6.1589 65.1182 6.31532 64.3361 6.62815 63.7104C7.17561 62.6937 8.66156 62.5373 9.36544 63.3194C9.75648 63.7887 9.9129 64.4143 9.99111 65.04C9.99111 65.3528 10.0693 65.3528 10.3821 65.3528C11.7899 65.3528 13.1976 65.3528 14.6054 65.3528H14.9182C14.9182 65.1964 14.84 65.04 14.84 64.9618C14.6836 63.7887 14.3708 62.6937 13.7451 61.677C13.1194 60.5039 12.1809 59.6436 10.9296 59.0962C9.67827 58.5487 8.34873 58.4705 7.01919 58.6269C6.1589 58.7833 5.29861 59.018 4.51653 59.4872C3.18699 60.3475 2.32669 61.5206 1.77924 63.0066C1.15357 64.6489 0.997154 66.4477 0.918945 68.1683C0.918945 69.185 0.997154 70.2017 0.997154 71.2966C0.997154 72.2351 1.07536 73.1736 1.30999 74.1121C1.62282 75.5199 2.17028 76.8494 3.18698 77.9444C4.36011 79.2739 5.84606 79.8996 7.56665 80.056C8.27052 80.1342 9.05261 80.056 9.75648 79.9778C11.5553 79.6649 12.8848 78.7264 13.7451 77.1623C14.6836 75.5199 14.9964 73.7993 15.0746 71.9223C15.1529 70.9838 15.0746 69.9671 15.0746 69.0286V68.7158H14.9182ZM33.6882 41.4993C34.2357 43.2981 34.7049 45.0969 35.2524 46.9739C35.878 49.1637 36.4255 51.2753 37.0512 53.4652C37.1294 53.6216 37.1294 53.6998 37.2858 53.6998C38.6935 53.6998 40.1013 53.6998 41.509 53.6998C41.6655 53.6998 41.7437 53.6998 41.7437 53.4652C41.9783 52.6049 42.2129 51.8228 42.4475 50.9625C42.995 49.1637 43.4642 47.2867 44.0117 45.4879C44.6374 43.2981 45.1848 41.1865 45.8105 38.9966C46.3579 36.9632 46.9836 34.9298 47.5311 32.8964C47.5311 32.8182 47.5311 32.8182 47.5311 32.74H42.7604C42.2129 32.74 42.2129 32.74 42.1347 33.2874C41.6655 35.3991 41.1962 37.4325 40.727 39.5441C40.3359 41.3429 39.8667 43.2199 39.4756 45.0969C39.3974 44.6276 39.3192 44.2366 39.241 43.9238C38.85 42.3596 38.4589 40.7172 38.1461 39.153C37.6768 37.1196 37.2076 35.0862 36.8165 33.0528C36.8165 32.8964 36.6601 32.8964 36.5037 32.8964C35.6434 32.8964 34.7049 32.8964 33.8446 32.8964H31.342C31.4984 33.4438 31.6548 33.9131 31.8112 34.3823C32.2805 36.6504 32.9843 39.0748 33.6882 41.4993ZM85.071 60.5039C83.7415 59.0962 82.0209 58.5487 80.0657 58.4705C79.1272 58.3923 78.1105 58.4705 77.172 58.7833C75.9989 59.0962 74.9822 59.7218 74.2001 60.6603C73.3398 61.7552 73.027 63.0066 73.027 64.4143C73.027 65.04 73.1052 65.6657 73.1834 66.2913C73.418 67.5427 73.9655 68.5594 74.904 69.4197C75.7643 70.2017 76.7028 70.7492 77.7977 71.1402C78.5798 71.4531 79.2836 71.7659 79.9875 72.1569C81.0824 72.7044 81.317 73.4865 81.0824 74.5814C80.926 75.2853 80.3003 75.7545 79.5183 75.8327C78.2669 75.9109 77.3284 75.4417 76.5463 74.5032C76.3899 74.3468 76.2335 74.1121 76.0771 73.9557C74.904 74.816 73.7308 75.7545 72.4795 76.6148C72.7923 76.9276 73.027 77.3187 73.2616 77.6315C74.0437 78.4918 74.904 79.1175 75.9207 79.5085C76.781 79.8214 77.7195 79.9778 78.7362 80.056C79.5965 80.1342 80.4568 80.1342 81.2388 79.9778C81.4735 79.9778 81.7863 79.9778 81.7863 79.5867C81.8645 78.8046 82.0991 78.0226 82.2555 77.2405C82.4902 75.9891 82.803 74.7378 83.0376 73.4865C83.194 72.6262 83.5851 72.0005 84.3672 71.6095C84.6018 71.5313 84.68 71.3749 84.68 71.1402C84.68 70.8274 84.8364 70.5146 84.9146 70.2017C84.9146 69.9671 85.071 69.7325 84.8364 69.4197C84.1325 68.6376 83.2722 68.0901 82.3337 67.6991C81.4735 67.308 80.6132 66.9952 79.7529 66.6042C79.2836 66.3695 78.8144 66.1349 78.5015 65.7439C78.0323 65.2746 77.9541 64.6489 78.1105 64.0233C78.2669 63.3976 78.5016 63.0066 79.1272 62.8502C80.0657 62.6155 81.0042 62.7719 81.7081 63.4758C82.0209 63.7887 82.2555 64.2579 82.5684 64.6489C82.6466 64.5707 82.7248 64.5707 82.803 64.4925C83.8197 63.7104 84.8364 62.9284 85.8531 62.1463C86.0095 61.9899 86.0095 61.9117 85.9313 61.7552C85.6967 61.286 85.4621 60.8949 85.071 60.5039ZM48.7042 79.7431H53.7877V58.7833H48.7042V79.7431ZM53.7095 35.1644C51.5979 35.2426 49.8773 34.3823 48.626 32.5836V53.6216H53.7095V35.1644ZM46.9054 76.6148C46.2797 74.5032 45.7323 72.3916 45.1066 70.3581C44.5592 68.4811 44.0117 66.6042 43.4642 64.7272C42.9168 62.8502 42.3693 60.9732 41.8219 59.0962C41.8219 58.9397 41.7437 58.8615 41.5872 58.8615C39.9449 58.8615 38.3025 58.8615 36.7383 58.8615C34.7831 65.5874 32.9061 72.3134 30.9509 79.1175C29.9342 76.3802 28.9175 73.6429 27.979 70.9838C28.2918 70.7492 28.5265 70.5928 28.7611 70.3581C28.9957 70.1235 29.2303 69.8889 29.465 69.5761C30.3253 68.3247 30.5599 66.917 30.6381 65.5092C30.6381 64.9618 30.5599 64.4143 30.4817 63.8669C30.3253 62.6155 29.7778 61.5206 28.9175 60.6603C27.6662 59.4872 26.1802 58.9397 24.5378 58.8615C22.0352 58.7833 19.5325 58.8615 17.0298 58.8615C16.9516 58.8615 16.8734 58.8615 16.7952 58.8615V79.8214H21.8788V71.8441H23.2865C24.225 74.5032 25.0853 77.1623 26.0238 79.7431H34.001C34.7049 79.7431 35.3306 79.7431 36.0345 79.7431C36.1127 79.7431 36.2691 79.6649 36.2691 79.5867C36.4255 78.9611 36.5037 78.3354 36.6601 77.7097C36.7383 77.2405 36.8947 76.693 36.973 76.2238C38.5371 76.2238 40.1013 76.2238 41.6655 76.2238C41.7437 76.2238 41.8219 76.302 41.8219 76.3802C41.9001 76.8494 41.9783 77.2405 42.1347 77.7097C42.2911 78.4136 42.4475 79.1175 42.604 79.8214H47.9221C47.9221 79.7431 47.9221 79.6649 47.9221 79.5867C47.5311 78.57 47.2182 77.5533 46.9054 76.6148ZM25.3981 66.2131C25.2417 66.9952 24.6161 67.3862 23.9122 67.5426C23.7558 67.5426 23.5993 67.6209 23.5211 67.6209C22.9737 67.6209 22.348 67.6209 21.7223 67.6209V63.0066C22.5826 63.0066 23.3647 63.0066 24.225 63.2412C24.9289 63.4758 25.3981 64.1015 25.4763 64.8836C25.4763 65.3528 25.4763 65.7439 25.3981 66.2131ZM38.0679 71.9223C38.4589 69.9671 38.85 68.0901 39.241 66.1349H39.3192C39.7102 68.0901 40.1013 69.9671 40.4923 71.9223H38.0679Z" fill="#040404"/>
</svg>
