<svg width="89" height="89" viewBox="0 0 89 89" fill="none" xmlns="http://www.w3.org/2000/svg">
<path d="M44.5235 10.3721C37.7247 10.3721 31.0787 12.3881 25.4257 16.1653C19.7728 19.9425 15.3669 25.3111 12.7651 31.5923C10.1633 37.8735 9.48259 44.7852 10.809 51.4533C12.1353 58.1214 15.4092 64.2464 20.2167 69.0539C25.0241 73.8613 31.1491 77.1352 37.8172 78.4616C44.4853 79.7879 51.397 79.1072 57.6782 76.5054C63.9594 73.9037 69.328 69.4977 73.1052 63.8448C76.8824 58.1919 78.8985 51.5458 78.8985 44.7471C78.8884 35.6333 75.2636 26.8957 68.8192 20.4513C62.3748 14.0069 53.6372 10.3821 44.5235 10.3721ZM67.8263 66.1043L56.1388 54.4168C58.4039 51.7023 59.6447 48.279 59.6447 44.7436C59.6447 41.2082 58.4039 37.7849 56.1388 35.0705L67.8263 23.383C73.1782 29.2079 76.1481 36.8299 76.1481 44.7402C76.1481 52.6505 73.1782 60.2725 67.8263 66.0974V66.1043ZM32.1485 44.7471C32.1485 42.2995 32.8742 39.9069 34.234 37.8719C35.5938 35.8368 37.5265 34.2507 39.7877 33.3141C42.049 32.3774 44.5372 32.1324 46.9377 32.6099C49.3382 33.0873 51.5432 34.2659 53.2739 35.9966C55.0046 37.7273 56.1832 39.9323 56.6607 42.3328C57.1382 44.7333 56.8931 47.2215 55.9565 49.4828C55.0198 51.744 53.4337 53.6767 51.3986 55.0365C49.3636 56.3963 46.971 57.1221 44.5235 57.1221C41.2414 57.1221 38.0938 55.8183 35.773 53.4975C33.4522 51.1768 32.1485 48.0291 32.1485 44.7471ZM65.8806 21.4443L54.1931 33.1318C51.4787 30.8666 48.0554 29.6259 44.52 29.6259C40.9846 29.6259 37.5613 30.8666 34.8469 33.1318L23.1594 21.4443C28.9843 16.0923 36.6063 13.1224 44.5166 13.1224C52.4269 13.1224 60.0489 16.0923 65.8738 21.4443H65.8806ZM21.2206 23.3899L32.9081 35.0774C30.643 37.7918 29.4022 41.2151 29.4022 44.7505C29.4022 48.2859 30.643 51.7092 32.9081 54.4236L21.2206 66.1111C15.8687 60.2862 12.8988 52.6642 12.8988 44.7539C12.8988 36.8437 15.8687 29.2217 21.2206 23.3968V23.3899ZM23.1663 68.0499L34.8538 56.3624C37.5682 58.6276 40.9915 59.8683 44.5269 59.8683C48.0623 59.8683 51.4856 58.6276 54.2 56.3624L65.8875 68.0499C60.0626 73.4018 52.4406 76.3717 44.5303 76.3717C36.62 76.3717 28.9981 73.4018 23.1731 68.0499H23.1663Z" fill="black"/>
</svg>
