<svg width="89" height="89" viewBox="0 0 89 89" fill="none" xmlns="http://www.w3.org/2000/svg">
<path d="M44.5 10.6064C37.7013 10.6064 31.0552 12.6225 25.4023 16.3997C19.7493 20.1769 15.3434 25.5455 12.7417 31.8267C10.1399 38.1079 9.45915 45.0196 10.7855 51.6877C12.1119 58.3558 15.3858 64.4808 20.1932 69.2882C25.0007 74.0957 31.1257 77.3696 37.7938 78.6959C44.4619 80.0223 51.3735 79.3416 57.6548 76.7398C63.936 74.138 69.3046 69.7321 73.0818 64.0792C76.859 58.4262 78.875 51.7802 78.875 44.9814C78.865 35.8677 75.2402 27.1301 68.7958 20.6857C62.3514 14.2413 53.6138 10.6165 44.5 10.6064ZM67.8028 66.3386L56.1153 54.6511C58.3805 51.9367 59.6212 48.5134 59.6212 44.978C59.6212 41.4426 58.3805 38.0193 56.1153 35.3049L67.8028 23.6174C73.1547 29.4423 76.1246 37.0643 76.1246 44.9746C76.1246 52.8849 73.1547 60.5068 67.8028 66.3318V66.3386ZM32.125 44.9814C32.125 42.5339 32.8508 40.1413 34.2106 38.1063C35.5704 36.0712 37.5031 34.4851 39.7643 33.5484C42.0255 32.6118 44.5137 32.3667 46.9143 32.8442C49.3148 33.3217 51.5198 34.5003 53.2505 36.231C54.9811 37.9617 56.1597 40.1667 56.6372 42.5672C57.1147 44.9677 56.8697 47.4559 55.933 49.7172C54.9964 51.9784 53.4103 53.9111 51.3752 55.2709C49.3401 56.6307 46.9476 57.3564 44.5 57.3564C41.218 57.3564 38.0703 56.0527 35.7496 53.7319C33.4288 51.4111 32.125 48.2635 32.125 44.9814ZM65.8572 21.6786L54.1697 33.3661C51.4553 31.101 48.032 29.8602 44.4966 29.8602C40.9612 29.8602 37.5379 31.101 34.8235 33.3661L23.136 21.6786C28.9609 16.3267 36.5829 13.3568 44.4931 13.3568C52.4034 13.3568 60.0254 16.3267 65.8503 21.6786H65.8572ZM21.1972 23.6243L32.8847 35.3118C30.6195 38.0262 29.3788 41.4495 29.3788 44.9849C29.3788 48.5203 30.6195 51.9436 32.8847 54.658L21.1972 66.3455C15.8453 60.5206 12.8754 52.8986 12.8754 44.9883C12.8754 37.078 15.8453 29.456 21.1972 23.6311V23.6243ZM23.1428 68.2843L34.8303 56.5968C37.5448 58.8619 40.968 60.1027 44.5035 60.1027C48.0389 60.1027 51.4622 58.8619 54.1766 56.5968L65.8641 68.2843C60.0392 73.6362 52.4172 76.6061 44.5069 76.6061C36.5966 76.6061 28.9746 73.6362 23.1497 68.2843H23.1428Z" fill="white"/>
</svg>
