<svg width="89" height="89" viewBox="0 0 89 89" fill="none" xmlns="http://www.w3.org/2000/svg">
<path d="M22.9039 31.3276L7.67239 44.0223L22.9039 56.717C23.1206 56.8979 23.2763 57.1412 23.35 57.4138C23.4236 57.6864 23.4115 57.975 23.3154 58.2404C23.2192 58.5059 23.0437 58.7353 22.8127 58.8975C22.5817 59.0598 22.3063 59.147 22.0239 59.1473C21.7019 59.1487 21.3899 59.0354 21.1439 58.8276L4.64395 45.0776C4.48944 44.9486 4.36516 44.7871 4.27988 44.6048C4.19459 44.4224 4.15039 44.2236 4.15039 44.0223C4.15039 43.821 4.19459 43.6221 4.27988 43.4398C4.36516 43.2574 4.48944 43.096 4.64395 42.967L21.1439 29.217C21.4255 28.9992 21.7805 28.8991 22.1344 28.9377C22.4882 28.9763 22.8133 29.1506 23.0413 29.424C23.2692 29.6973 23.3823 30.0485 23.3567 30.4035C23.3311 30.7585 23.1688 31.0898 22.9039 31.3276ZM83.4039 42.967L66.9039 29.217C66.7664 29.0935 66.6055 28.999 66.4306 28.9391C66.2558 28.8793 66.0706 28.8553 65.8863 28.8686C65.702 28.8819 65.5222 28.9322 65.3578 29.0165C65.1933 29.1009 65.0476 29.2175 64.9292 29.3594C64.8109 29.5014 64.7223 29.6657 64.6689 29.8426C64.6155 30.0195 64.5983 30.2054 64.6183 30.3891C64.6384 30.5729 64.6953 30.7506 64.7856 30.9119C64.8759 31.0731 64.9978 31.2145 65.1439 31.3276L80.3755 44.0223L65.1439 56.717C64.9978 56.83 64.8759 56.9714 64.7856 57.1327C64.6953 57.2939 64.6384 57.4717 64.6183 57.6554C64.5983 57.8391 64.6155 58.025 64.6689 58.202C64.7223 58.3789 64.8109 58.5432 64.9292 58.6852C65.0476 58.8271 65.1933 58.9437 65.3578 59.028C65.5222 59.1124 65.702 59.1627 65.8863 59.176C66.0706 59.1893 66.2558 59.1653 66.4306 59.1054C66.6055 59.0456 66.7664 58.9511 66.9039 58.8276L83.4039 45.0776C83.5584 44.9486 83.6827 44.7871 83.768 44.6048C83.8533 44.4224 83.8975 44.2236 83.8975 44.0223C83.8975 43.821 83.8533 43.6221 83.768 43.4398C83.6827 43.2574 83.5584 43.096 83.4039 42.967ZM55.4949 12.4798C55.3252 12.4179 55.1449 12.39 54.9644 12.3978C54.7839 12.4055 54.6067 12.4488 54.4429 12.5251C54.2791 12.6014 54.132 12.7092 54.0099 12.8424C53.8879 12.9756 53.7932 13.1316 53.7314 13.3013L31.7314 73.8013C31.6695 73.9711 31.6416 74.1513 31.6494 74.3318C31.6572 74.5124 31.7005 74.6896 31.7768 74.8533C31.8531 75.0171 31.9609 75.1642 32.0941 75.2863C32.2273 75.4084 32.3832 75.503 32.553 75.5648C32.7042 75.6188 32.8634 75.6467 33.0239 75.6473C33.3061 75.6474 33.5815 75.5607 33.8127 75.399C34.0439 75.2373 34.2198 75.0083 34.3164 74.7432L56.3164 14.2432C56.3784 14.0735 56.4062 13.8932 56.3985 13.7127C56.3907 13.5322 56.3474 13.355 56.2711 13.1912C56.1948 13.0275 56.087 12.8803 55.9538 12.7583C55.8206 12.6362 55.6647 12.5416 55.4949 12.4798Z" fill="black"/>
</svg>
