<svg width="88" height="89" viewBox="0 0 88 89" fill="none" xmlns="http://www.w3.org/2000/svg">
<path d="M22.8805 31.562L7.64895 44.2567L22.8805 56.9513C23.0972 57.1323 23.2529 57.3756 23.3265 57.6482C23.4001 57.9207 23.388 58.2093 23.2919 58.4748C23.1958 58.7402 23.0203 58.9697 22.7893 59.1319C22.5582 59.2942 22.2828 59.3814 22.0005 59.3817C21.6785 59.3831 21.3665 59.2698 21.1205 59.062L4.62051 45.312C4.46601 45.1829 4.34172 45.0215 4.25644 44.8392C4.17116 44.6568 4.12695 44.458 4.12695 44.2567C4.12695 44.0554 4.17116 43.8565 4.25644 43.6741C4.34172 43.4918 4.46601 43.3304 4.62051 43.2013L21.1205 29.4513C21.4021 29.2336 21.7571 29.1334 22.1109 29.172C22.4648 29.2107 22.7899 29.385 23.0178 29.6583C23.2458 29.9317 23.3588 30.2828 23.3332 30.6379C23.3076 30.9929 23.1453 31.3241 22.8805 31.562ZM83.3805 43.2013L66.8805 29.4513C66.743 29.3279 66.582 29.2334 66.4072 29.1735C66.2323 29.1136 66.0472 29.0896 65.8629 29.1029C65.6785 29.1162 65.4988 29.1666 65.3343 29.2509C65.1699 29.3352 65.0241 29.4518 64.9058 29.5938C64.7874 29.7357 64.6989 29.9001 64.6455 30.077C64.5921 30.2539 64.5749 30.4398 64.5949 30.6235C64.615 30.8072 64.6718 30.985 64.7621 31.1463C64.8524 31.3075 64.9743 31.4489 65.1205 31.562L80.3521 44.2567L65.1205 56.9513C64.9743 57.0644 64.8524 57.2058 64.7621 57.367C64.6718 57.5283 64.615 57.7061 64.5949 57.8898C64.5749 58.0735 64.5921 58.2594 64.6455 58.4363C64.6989 58.6133 64.7874 58.7776 64.9058 58.9195C65.0241 59.0615 65.1699 59.1781 65.3343 59.2624C65.4988 59.3468 65.6785 59.3971 65.8629 59.4104C66.0472 59.4237 66.2323 59.3997 66.4072 59.3398C66.582 59.2799 66.743 59.1855 66.8805 59.062L83.3805 45.312C83.535 45.1829 83.6593 45.0215 83.7446 44.8392C83.8299 44.6568 83.8741 44.458 83.8741 44.2567C83.8741 44.0554 83.8299 43.8565 83.7446 43.6741C83.6593 43.4918 83.535 43.3304 83.3805 43.2013ZM55.4714 12.7142C55.3017 12.6522 55.1215 12.6244 54.9409 12.6321C54.7604 12.6399 54.5832 12.6832 54.4195 12.7595C54.2557 12.8358 54.1086 12.9436 53.9865 13.0768C53.8644 13.21 53.7698 13.3659 53.708 13.5357L31.708 74.0357C31.6461 74.2054 31.6182 74.3857 31.626 74.5662C31.6338 74.7467 31.677 74.9239 31.7533 75.0877C31.8296 75.2515 31.9375 75.3986 32.0707 75.5207C32.2038 75.6428 32.3598 75.7374 32.5296 75.7992C32.6807 75.8531 32.84 75.881 33.0005 75.8817C33.2827 75.8818 33.5581 75.7951 33.7893 75.6334C34.0205 75.4716 34.1964 75.2427 34.293 74.9776L56.293 14.4776C56.3549 14.3079 56.3828 14.1276 56.375 13.9471C56.3673 13.7666 56.324 13.5894 56.2477 13.4256C56.1714 13.2618 56.0636 13.1147 55.9304 12.9926C55.7972 12.8706 55.6412 12.7759 55.4714 12.7142Z" fill="white"/>
</svg>
