<svg width="88" height="89" viewBox="0 0 88 89" fill="none" xmlns="http://www.w3.org/2000/svg">
<path d="M85.8958 32.0432L44.6458 10.0432C44.4469 9.93724 44.225 9.88184 43.9996 9.88184C43.7742 9.88184 43.5523 9.93724 43.3533 10.0432L2.10332 32.0432C1.88333 32.1604 1.69935 32.3353 1.57106 32.549C1.44277 32.7627 1.375 33.0073 1.375 33.2566C1.375 33.5059 1.44277 33.7505 1.57106 33.9642C1.69935 34.178 1.88333 34.3528 2.10332 34.47L12.3746 39.9494V57.4188C12.3667 58.4314 12.7341 59.411 13.4058 60.1688C17.7543 65.0122 27.4996 73.1385 43.9996 73.1385C51.2183 73.1385 57.1308 71.5847 61.8746 69.4294V82.7566C61.8746 83.1213 62.0194 83.471 62.2773 83.7289C62.5352 83.9867 62.8849 84.1316 63.2496 84.1316C63.6142 84.1316 63.964 83.9867 64.2218 83.7289C64.4797 83.471 64.6246 83.1213 64.6246 82.7566V68.0372C68.3619 65.9842 71.731 63.3226 74.5933 60.1619C75.2645 59.4038 75.6318 58.4244 75.6246 57.4119V39.9494L85.8958 34.47C86.1158 34.3528 86.2998 34.178 86.4281 33.9642C86.5564 33.7505 86.6241 33.5059 86.6241 33.2566C86.6241 33.0073 86.5564 32.7627 86.4281 32.549C86.2998 32.3353 86.1158 32.1604 85.8958 32.0432ZM43.9996 70.3816C28.5893 70.3816 19.5074 62.8191 15.4683 58.3229C15.2458 58.0744 15.1233 57.7523 15.1246 57.4188V41.4138L43.3533 56.47C43.5523 56.576 43.7742 56.6314 43.9996 56.6314C44.225 56.6314 44.4469 56.576 44.6458 56.47L61.8746 47.2816V66.37C57.2614 68.6629 51.3524 70.3816 43.9996 70.3816ZM72.8746 57.4188C72.8741 57.753 72.7519 58.0756 72.5308 58.3263C70.2252 60.8744 67.5621 63.0744 64.6246 64.8575V45.8138L72.8746 41.4138V57.4188ZM64.4218 42.806C64.2937 42.5971 64.1121 42.4262 63.8958 42.311L44.6458 32.0432C44.3247 31.8791 43.952 31.8478 43.608 31.956C43.264 32.0641 42.9763 32.3031 42.8068 32.6213C42.6373 32.9396 42.5996 33.3117 42.7018 33.6575C42.804 34.0033 43.038 34.2951 43.3533 34.47L61.7027 44.2566L43.9996 53.6994L5.67145 33.2566L43.9996 12.8138L82.3277 33.2566L64.4218 42.806Z" fill="white"/>
</svg>
