<svg width="89" height="89" viewBox="0 0 89 89" fill="none" xmlns="http://www.w3.org/2000/svg">
<path d="M85.9193 31.8088L44.6693 9.80879C44.4703 9.70286 44.2484 9.64746 44.023 9.64746C43.7976 9.64746 43.5757 9.70286 43.3768 9.80879L2.12676 31.8088C1.90677 31.926 1.72278 32.1009 1.5945 32.3146C1.46621 32.5284 1.39844 32.7729 1.39844 33.0222C1.39844 33.2715 1.46621 33.5161 1.5945 33.7298C1.72278 33.9436 1.90677 34.1184 2.12676 34.2357L12.398 39.715V57.1844C12.3901 58.197 12.7575 59.1767 13.4293 59.9344C17.7777 64.7779 27.523 72.9041 44.023 72.9041C51.2418 72.9041 57.1543 71.3504 61.898 69.195V82.5222C61.898 82.8869 62.0429 83.2366 62.3007 83.4945C62.5586 83.7524 62.9083 83.8972 63.273 83.8972C63.6377 83.8972 63.9874 83.7524 64.2453 83.4945C64.5031 83.2366 64.648 82.8869 64.648 82.5222V67.8029C68.3854 65.7498 71.7544 63.0883 74.6168 59.9275C75.2879 59.1695 75.6552 58.19 75.648 57.1775V39.715L85.9193 34.2357C86.1393 34.1184 86.3232 33.9436 86.4515 33.7298C86.5798 33.5161 86.6476 33.2715 86.6476 33.0222C86.6476 32.7729 86.5798 32.5284 86.4515 32.3146C86.3232 32.1009 86.1393 31.926 85.9193 31.8088ZM44.023 70.1472C28.6127 70.1472 19.5308 62.5847 15.4918 58.0885C15.2692 57.84 15.1468 57.5179 15.148 57.1844V41.1794L43.3768 56.2357C43.5757 56.3416 43.7976 56.397 44.023 56.397C44.2484 56.397 44.4703 56.3416 44.6693 56.2357L61.898 47.0472V66.1357C57.2849 68.4285 51.3758 70.1472 44.023 70.1472ZM72.898 57.1844C72.8975 57.5186 72.7753 57.8412 72.5543 58.0919C70.2487 60.64 67.5855 62.84 64.648 64.6232V45.5794L72.898 41.1794V57.1844ZM64.4452 42.5716C64.3171 42.3627 64.1355 42.1918 63.9193 42.0766L44.6693 31.8088C44.3481 31.6448 43.9754 31.6135 43.6314 31.7216C43.2874 31.8298 42.9997 32.0687 42.8302 32.387C42.6607 32.7052 42.623 33.0774 42.7252 33.4231C42.8275 33.7689 43.0614 34.0607 43.3768 34.2357L61.7261 44.0222L44.023 53.465L5.69488 33.0222L44.023 12.5794L82.3511 33.0222L64.4452 42.5716Z" fill="black"/>
</svg>
