<svg width="29" height="117" viewBox="0 0 29 117" fill="none" xmlns="http://www.w3.org/2000/svg">
<path d="M2.09498 20.6756C0.473788 22.288 0.473513 24.9018 2.09437 26.5138C3.71524 28.1259 6.34344 28.1255 7.96462 26.5132L27.132 7.45067C28.7532 5.83825 28.7535 3.22441 27.1326 1.61239C25.5117 0.000368949 22.8835 0.00066661 21.2623 1.61299L2.09498 20.6756Z" fill="black"/>
<path d="M21.7526 26.1758C23.4384 27.7198 26.0633 27.6125 27.6154 25.9361C29.1674 24.2599 29.059 21.6494 27.3732 20.1054L7.43014 1.84159C5.74428 0.297643 3.11944 0.404957 1.56735 2.0812C0.0152787 3.75755 0.123751 6.36805 1.80966 7.912L21.7526 26.1758Z" fill="black"/>
<path d="M14.5918 44.6748L14.5918 116.166" stroke="black" stroke-width="4"/>
</svg>
