<svg width="175" height="87" viewBox="0 0 175 87" fill="none" xmlns="http://www.w3.org/2000/svg">
<mask id="mask0_6345_614" style="mask-type:luminance" maskUnits="userSpaceOnUse" x="0" y="0" width="47" height="47">
<path d="M28.877 38.3093C31.9011 38.2721 34.7713 37.8294 37.3118 36.9762C37.9507 36.7606 38.5615 36.522 39.1389 36.2641C38.4319 37.9898 37.3939 39.4294 36.0403 40.4994C33.3702 42.4651 30.2204 43.8136 26.801 44.3281C27.6555 42.85 28.3458 40.7612 28.877 38.3093ZM14.6441 42.5023C14.5812 42.4497 14.5132 42.4009 14.4362 42.365C13.2468 41.7851 12.7657 39.133 13.3854 35.0773C15.6718 36.105 18.1609 36.9197 20.7771 37.4779C22.7594 37.9013 24.7353 38.163 26.6663 38.2644C25.7194 42.3804 24.5056 44.5423 23.7012 44.5423C23.6498 44.5423 23.5998 44.5513 23.551 44.559C20.3639 44.5372 17.3436 43.8046 14.6441 42.5023ZM3.60086 29.3908C3.41779 28.6948 3.30221 27.9829 3.25572 27.2648C3.97166 28.2835 4.84285 29.2766 5.88084 30.2363C7.44873 31.6836 9.30916 32.9795 11.3826 34.0906C10.9592 36.4591 10.8398 38.6057 11.1067 40.3352C7.53341 37.6331 4.85953 33.8083 3.60086 29.3908ZM30.2255 23.6388C30.2255 22.8023 30.2127 21.9619 30.1883 21.1254C32.8532 20.9483 35.3205 20.2554 37.34 19.0943C39.2107 22.7946 40.2141 26.6989 40.2064 30.3839C40.2051 31.4514 40.1127 32.4663 39.9433 33.4247C38.981 34.0136 37.8738 34.5243 36.6279 34.9451C34.4159 35.6893 31.9242 36.0947 29.2824 36.1627C29.9188 32.3559 30.2255 27.9358 30.2255 23.6388ZM21.2262 35.3852C18.5728 34.8168 16.0657 33.9738 13.796 32.9076C14.5414 29.5537 15.9297 25.4903 18.1289 20.9791C18.4483 20.326 18.7742 19.6832 19.1066 19.0545C20.6449 19.7448 22.3193 20.2926 24.0745 20.6673C25.4076 20.9534 26.742 21.1087 28.0469 21.1536C28.0712 21.9568 28.0815 22.7843 28.0815 23.6388C28.0815 28.6825 27.6786 32.8691 27.0961 36.1409C25.1818 36.0575 23.2098 35.8073 21.2262 35.3852ZM7.33582 28.6646C5.51646 26.9838 4.26548 25.2029 3.6278 23.4348C4.13332 21.4538 5.11101 19.4651 6.54931 17.5597C7.91319 15.7532 9.61067 14.1263 11.5571 12.7278C12.119 13.7427 12.9056 14.7332 13.9076 15.6724C14.8596 16.5641 15.9695 17.3724 17.1999 18.0794C16.8584 18.7275 16.5273 19.3811 16.2068 20.0399C14.3066 23.934 12.7554 28.1129 11.8445 31.903C10.1521 30.9497 8.63171 29.8642 7.33582 28.6646ZM28.7705 8.76057C31.2057 10.5735 33.4383 12.9125 35.3051 15.648C35.6592 16.1663 35.9928 16.6937 36.3097 17.2262C34.5994 18.2154 32.4336 18.8069 30.0997 18.9724C29.9022 15.2759 29.4646 11.7193 28.7705 8.76057ZM24.5236 18.5734C22.9737 18.2436 21.5007 17.7676 20.1433 17.171C22.1423 13.6747 24.3273 10.6351 26.4841 8.37565C27.1577 11.0264 27.7223 14.5908 27.9609 19.0096C26.8254 18.9621 25.6706 18.8197 24.5236 18.5734ZM15.3716 14.1096C14.485 13.2808 13.8127 12.416 13.3598 11.5474C15.3665 10.34 17.5874 9.3559 19.9534 8.64381C21.3609 8.2204 22.7851 7.90734 24.2054 7.6905C22.1551 9.98845 20.1073 12.9074 18.2302 16.2048C17.1576 15.5851 16.1966 14.8833 15.3716 14.1096ZM10.7654 7.28506C10.7359 7.39283 10.7051 7.50318 10.6807 7.61609C10.4639 8.62585 10.4896 9.66127 10.7436 10.6877C8.43925 12.2774 6.43512 14.1571 4.839 16.269C4.35273 16.9118 3.91777 17.5687 3.52387 18.2295C4.7107 13.844 7.2922 10.0282 10.7654 7.28506ZM12.7747 8.06259C13.012 6.95146 13.6805 5.95838 14.7134 5.13723C17.214 4.39049 20.1227 4.57012 23.1802 5.68894C21.8933 5.91219 20.6064 6.20986 19.3375 6.59349C16.9754 7.30174 14.7455 8.27173 12.7028 9.44957C12.6566 8.98125 12.6785 8.51679 12.7747 8.06259ZM30.1511 5.24115C30.8863 4.76514 31.5637 4.43925 32.1295 4.30453C33.2034 4.73435 34.2684 5.28478 35.2781 5.98019C33.6577 5.57475 31.9345 5.3284 30.1511 5.24115ZM26.5431 2.94834C27.4117 3.04585 28.3394 3.19468 29.2927 3.41665C28.6961 3.73742 28.0777 4.13773 27.4477 4.61887C27.168 3.98633 26.8665 3.42948 26.5431 2.94834ZM24.2221 3.78874C23.2534 3.41794 22.2962 3.13053 21.3519 2.92524C22.1089 2.84056 22.8749 2.79181 23.655 2.79181C24.0194 2.79566 24.4671 3.23446 24.9355 4.08256C24.6981 3.9812 24.4607 3.88112 24.2221 3.78874ZM0.65625 23.6761C0.65625 25.8649 0.970597 27.9807 1.54412 29.9887C1.57876 30.1234 1.61213 30.2581 1.6519 30.3928C1.6596 30.4172 1.67115 30.4403 1.68013 30.4673C4.58496 39.8605 13.3508 46.703 23.6845 46.703C28.4651 46.703 32.9083 45.2378 36.5933 42.7358C36.6305 42.714 36.6677 42.696 36.701 42.6729C36.9192 42.5241 37.1309 42.3676 37.3362 42.2033C41.5741 39.074 44.7022 34.5281 46.0211 29.2689C46.0956 29.0277 46.1597 28.7813 46.2136 28.5324C46.2264 28.4721 46.2303 28.4157 46.2328 28.3566C46.5472 26.8439 46.7114 25.2786 46.7114 23.6773C46.7114 20.5698 46.1033 17.5533 44.901 14.7152C44.6701 14.1699 44.0427 13.9146 43.4974 14.1468C42.9521 14.3752 42.698 15.0052 42.9277 15.5492C44.017 18.1217 44.5687 20.8572 44.5687 23.6773C44.5687 25.4056 44.3545 27.0838 43.9554 28.6915C43.6385 29.7051 43.083 30.643 42.3144 31.495C42.3337 31.1319 42.3452 30.7649 42.3465 30.389C42.3555 26.2807 41.2187 21.9414 39.1119 17.8625C40.6567 16.5359 41.6434 14.8961 41.9808 13.0626C42.0886 12.4814 41.7037 11.9233 41.1225 11.8155C40.5399 11.7065 39.9818 12.0914 39.874 12.6739C39.6508 13.8864 39.0208 14.9988 38.0354 15.9431C37.7288 15.4363 37.4106 14.9346 37.0731 14.4406C35.1935 11.6846 32.9597 9.30073 30.5155 7.39797C33.7423 7.61095 36.7241 8.39233 39.126 9.73441C39.502 9.94868 40.0023 9.94226 40.3552 9.64844C40.8094 9.26994 40.871 8.59249 40.4899 8.13829C37.0398 3.31273 31.0723 0.650391 23.6819 0.650391C10.9874 0.649108 0.65625 10.979 0.65625 23.6761Z" fill="white"/>
</mask>
<g mask="url(#mask0_6345_614)">
<path d="M0.65625 0.649414H46.7114V46.7033H0.65625V0.649414Z" fill="url(#paint0_radial_6345_614)"/>
</g>
<path d="M55.502 0.652107H74.1866V4.48517H67.3248V23.7099H62.37V4.48517H55.504L55.502 0.652107ZM76.8094 23.7082V0.650391H81.7621V9.75156H90.4816V0.650735H95.4941V23.7082H90.5455V13.5826H81.7617V23.7082H76.8094ZM99.5288 0.652107H114.989V4.48517H104.484V9.88314H114.321V13.7141H104.484V19.8793H115.341V23.7103H99.5309L99.5288 0.652107ZM70.0621 32.6984H75.6476L79.6724 50.0412H79.7349L83.4423 32.6984H88.1679L82.2917 55.7562H76.801L72.6508 38.1891H72.5883L68.1117 55.7562H62.4952L56.8746 32.6984H61.9861L65.5285 50.0412H65.5989L70.0621 32.6984ZM89.851 44.2282C89.851 37.4261 93.2985 32.2157 100.929 32.2157C108.558 32.2157 112.012 37.424 112.012 44.2282C112.012 51.0323 108.558 56.2324 100.929 56.2324C93.2941 56.2324 89.851 51.0299 89.851 44.2282ZM95.1149 44.2282C95.1149 48.1829 96.0429 52.655 100.927 52.655C105.814 52.655 106.742 48.1829 106.742 44.2282C106.742 40.2653 105.814 35.7911 100.927 35.7911C96.0426 35.7911 95.1149 40.2677 95.1149 44.2282ZM120.221 55.7545H115.269V32.6967H125.071C129.034 32.728 133.089 34.0039 133.089 38.7028C133.089 41.7027 131.141 43.6864 128.299 44.2904V44.3529C132.102 44.7672 132.102 47.0972 132.516 50.293C132.743 51.7631 132.931 54.4786 133.856 55.7507H128.394C127.982 53.7093 127.755 51.6332 127.535 49.5547C127.404 48.2801 127.084 46.5235 125.458 46.4616H120.223V55.7504L120.221 55.7545ZM120.221 42.6286H124.368C126.545 42.5898 127.82 41.511 127.82 39.4637C127.82 37.4223 126.546 36.5583 124.368 36.5277H120.221V42.6286ZM136.884 55.7545V32.6967H141.837V51.9235H151.833V55.7545H136.884ZM154.508 32.6984H162.368C169.55 32.6362 174.022 36.2099 174.022 44.2285C174.022 52.243 169.55 55.8184 162.369 55.7549H154.508V32.6984ZM159.457 51.9232H162.012C167.892 51.9857 168.756 47.8967 168.756 44.2282C168.756 40.5538 167.892 36.4672 162.012 36.5311H159.457V51.9232ZM58.7967 86.6278V63.57H67.4526C71.5722 63.3144 75.7887 65.0421 75.7887 69.5434C75.7887 72.0651 74.0279 73.8241 71.7313 74.5868V74.6493C74.6402 75.2578 76.8073 77.27 76.8073 80.6513C76.8073 85.2185 71.0548 86.8827 67.5144 86.6247L58.7967 86.6278ZM67.6113 82.7947C69.9434 82.7947 71.5392 82.3787 71.5392 79.7288C71.5392 77.0793 69.9454 76.6629 67.6113 76.6629H63.7432V82.7971L67.6113 82.7947ZM67.6113 72.834C69.6878 72.834 70.8339 71.9703 70.8339 70.1185C70.8339 68.263 69.6857 67.4051 67.6113 67.4051H63.7432V72.836L67.6113 72.834ZM78.3451 86.6278L86.6832 63.57H92.5598L100.572 86.6278H95.5948L93.9329 81.741H84.7988L83.0711 86.6278H78.3451ZM92.6855 77.9104L89.5248 68.0733H89.4629L86.0789 77.9104H92.6855ZM116.927 86.6278L107.823 67.4649L107.761 67.5274V86.6244H103.132V63.5665H110.475L119.263 81.707L119.325 81.6369V63.5621H123.956V86.6216L116.927 86.6278ZM132.936 73.5348H132.998L140.665 63.57H146.444L137.98 73.8856L147.181 86.6281H141.017L133.001 74.8751H132.938V86.6281H127.989V63.5696H132.938L132.936 73.5348Z" fill="#002F54"/>
<defs>
<radialGradient id="paint0_radial_6345_614" cx="0" cy="0" r="1" gradientUnits="userSpaceOnUse" gradientTransform="translate(44.8258 8.24076) scale(38.1415 38.1421)">
<stop stop-color="white"/>
<stop offset="0.0598" stop-color="#E7F6FD"/>
<stop offset="0.1829" stop-color="#AFE2FA"/>
<stop offset="0.3589" stop-color="#37C6F4"/>
<stop offset="0.544" stop-color="#00AEEF"/>
<stop offset="1" stop-color="#002F54"/>
</radialGradient>
</defs>
</svg>
